M48
; DRILL file {KiCad 5.1.5-52549c5~84~ubuntu16.04.1} date Mon 24 Feb 2020 16:10:57 +06
; FORMAT={3:3/ absolute / metric / suppress leading zeros}
; #@! TF.CreationDate,2020-02-24T16:10:57+06:00
; #@! TF.GenerationSoftware,Kicad,Pcbnew,5.1.5-52549c5~84~ubuntu16.04.1
FMAT,2
METRIC,TZ
T1C0.400
T2C1.000
T3C1.500
T4C1.700
T5C3.050
T6C4.000
%
G90
G05
T1
X53900Y-133300
X54200Y-190300
X54300Y-107000
X56200Y-209300
X58300Y-152300
X60900Y-171300
X67700Y-108900
X69300Y-210900
X72700Y-133300
X73200Y-107000
X74500Y-132000
X77600Y-180575
X77600Y-182025
X78200Y-190300
X80100Y-209300
X80400Y-178900
X82200Y-152300
X83500Y-153800
X83800Y-178900
X86000Y-142125
X86000Y-144025
X87000Y-171300
X87500Y-205400
X88500Y-169900
X89400Y-190600
X89500Y-116275
X89500Y-117725
X90400Y-206400
X91900Y-133300
X92200Y-107000
X92800Y-209000
X93500Y-131400
X94500Y-160900
X95100Y-154300
X97200Y-190300
X97400Y-160200
X97900Y-185700
X99600Y-173300
X99700Y-167675
X100700Y-164300
X101200Y-152300
X102000Y-127600
X102000Y-133800
X102500Y-151100
X104200Y-209300
X104600Y-109000
X105600Y-116000
X105600Y-118200
X105600Y-140700
X105900Y-171300
X106700Y-116000
X106700Y-118200
X107500Y-169900
X107800Y-116000
X107800Y-118200
X109600Y-147800
X110500Y-133300
X110500Y-192300
X111200Y-107000
X112100Y-142125
X112100Y-144025
X112100Y-148875
X112100Y-150325
X113187Y-147313
X114100Y-154300
X115500Y-205600
X116200Y-190300
X116700Y-145800
X120000Y-152300
X123600Y-135300
X124900Y-109000
X125100Y-209300
X125400Y-171300
X125500Y-221700
X125600Y-165600
X128700Y-192100
X129400Y-133300
X129400Y-144025
X129400Y-146400
X129900Y-107000
X135200Y-190300
X135500Y-221600
X137600Y-173300
X137700Y-211300
X138000Y-150325
X138300Y-119500
X139000Y-152300
X141500Y-124100
X141500Y-133900
X142700Y-109000
X144400Y-171300
X148300Y-133300
X148300Y-192300
X148800Y-107000
X150500Y-152200
X151500Y-221700
X152500Y-150800
X153900Y-190300
X155500Y-169200
X156000Y-152300
X156000Y-154900
X156200Y-182700
X157000Y-152300
X157000Y-154900
X158100Y-152300
X158600Y-208700
X158700Y-212700
X159000Y-184700
X159400Y-182700
X159800Y-168400
X160500Y-104300
X161300Y-201300
X161400Y-126300
X161400Y-131100
X161700Y-119500
X161800Y-136300
X162800Y-126200
X163300Y-171300
X164200Y-149600
X164600Y-119200
X165200Y-149600
X166200Y-149600
X166600Y-192300
X167000Y-144100
X167400Y-133300
X168700Y-194300
X168800Y-115900
X168800Y-118300
X169200Y-110600
X169800Y-144100
X169900Y-121400
X170300Y-115500
X170300Y-119200
X170800Y-154300
X171600Y-107700
X172800Y-147100
X173000Y-180800
X173000Y-190300
X173000Y-199000
X173100Y-121425
X173200Y-188800
X174200Y-141800
X174263Y-156737
X174300Y-209300
X175000Y-155800
X175200Y-130700
X175220Y-169194
X176800Y-184525
X177100Y-107000
X177200Y-152300
X177600Y-130900
X177600Y-131900
X177600Y-132900
X178000Y-144025
X178600Y-142575
X178600Y-180100
X179500Y-133800
X180178Y-106145
X180188Y-143138
X180400Y-177800
X180600Y-124100
X181300Y-130800
X181300Y-131800
X181300Y-132800
X181400Y-179200
X182300Y-171300
X182700Y-136300
X182700Y-137300
X182700Y-138300
X182800Y-128700
X183600Y-118800
X183800Y-126375
X184600Y-131200
X185600Y-118000
X185700Y-136200
X185700Y-137200
X185700Y-138200
X186600Y-120300
X186600Y-126000
X187000Y-133300
X187600Y-124700
X188700Y-118000
X189100Y-198100
X189600Y-127100
X189600Y-154300
X190100Y-106400
X190100Y-115900
X190200Y-156000
X190200Y-160100
X190200Y-167100
X190200Y-183975
X190500Y-140300
X190600Y-150900
X191600Y-124000
X191600Y-127975
X191800Y-190300
X192500Y-141000
X192500Y-152100
X192600Y-117900
X192800Y-109000
X192900Y-112700
X193900Y-110600
X194300Y-153000
X194325Y-117900
X194500Y-116275
X194600Y-120300
X194600Y-160800
X194600Y-173300
X195025Y-149900
X195600Y-119225
X195800Y-107000
X195800Y-168400
X195900Y-110600
X196000Y-152300
X196200Y-144025
X196600Y-124000
X197400Y-114600
X197400Y-116300
X197500Y-125400
X197500Y-153400
X197600Y-160800
X197600Y-164800
X198200Y-113700
X198300Y-142000
X198500Y-134100
X198600Y-120600
X199200Y-209300
X199400Y-153575
X199600Y-120500
X199600Y-146000
X199700Y-131000
X199700Y-168400
X199700Y-184700
X200125Y-142200
X200200Y-159600
X200513Y-135087
X200700Y-144025
X200800Y-108900
X200875Y-120300
X201000Y-181000
X201400Y-146100
X201400Y-171300
X201700Y-119500
X202600Y-135800
X203600Y-115500
X203600Y-120400
X203900Y-147600
X204075Y-137400
X204400Y-190100
X204412Y-154688
X205200Y-142500
X205200Y-186200
X205213Y-138587
X205900Y-133300
X206100Y-148900
X207100Y-140100
X207400Y-141800
X207400Y-153100
X207500Y-105500
X207600Y-120400
X208600Y-158700
X208700Y-164071
X208700Y-161575
X209600Y-109000
X209600Y-131300
X210600Y-166600
X211000Y-105600
X211000Y-190300
X211400Y-205100
X211800Y-211300
X212013Y-168587
X212600Y-109000
X214400Y-159200
X214700Y-130575
X215000Y-107000
X215200Y-152300
X215600Y-122200
X215800Y-130100
X215900Y-163900
X217100Y-133900
X218600Y-166200
X220000Y-144800
X220300Y-171300
X221200Y-161200
X221300Y-181300
X221400Y-207100
X221400Y-209400
X221900Y-163100
X223200Y-209300
X225000Y-133300
X226900Y-130900
X227600Y-107100
X228000Y-119700
X228300Y-106400
X229000Y-108700
X229100Y-105700
X229800Y-108000
X230000Y-190300
X230600Y-107300
X230600Y-130900
X231100Y-152300
X231100Y-155900
X231100Y-163600
X231100Y-167100
X231500Y-172200
X232200Y-163500
X233900Y-107000
X234000Y-152300
X235700Y-211300
X239400Y-171300
X241500Y-203925
X241900Y-140400
X242600Y-192300
X243900Y-133300
X244300Y-150600
X246200Y-209300
X246400Y-152800
X246800Y-119200
X247500Y-163600
X247600Y-109000
X248400Y-168700
X248900Y-190300
X249400Y-163600
X250500Y-168700
X251700Y-179800
X251800Y-163600
X252400Y-142100
X252800Y-152300
X253700Y-163400
X254600Y-150700
X254600Y-185700
X254800Y-142500
X255200Y-120900
X255500Y-134400
X258000Y-145800
X258197Y-192297
X258300Y-171300
X259700Y-211300
X260000Y-214300
X260900Y-148400
X262700Y-133300
X263000Y-107000
X264500Y-153200
X264500Y-208000
X267800Y-190300
X270100Y-209300
X270600Y-173300
X271100Y-166200
X272100Y-152300
X274375Y-119925
X274500Y-134200
X275400Y-166200
X275600Y-103300
X275700Y-109000
X277300Y-171300
X278100Y-211300
X280700Y-192300
X281700Y-133300
X281913Y-167188
X282000Y-107000
X282000Y-122700
X282600Y-211300
X283500Y-152700
X286900Y-190300
X287800Y-153900
X290200Y-180575
X290600Y-173300
X291200Y-152300
X291400Y-178700
X291400Y-180575
X292900Y-172500
X292900Y-178975
X292900Y-180575
X292900Y-182025
X293400Y-136500
X294100Y-209300
X294200Y-168600
X294800Y-109000
X296100Y-180575
X297500Y-172500
X297700Y-142575
X299300Y-135300
X299600Y-192300
X300800Y-133300
X301000Y-107000
X301000Y-144200
X301400Y-129600
X302200Y-141200
X302500Y-153200
X304713Y-160213
X306200Y-152400
X306700Y-211300
X307500Y-208000
X307763Y-141237
X308000Y-157100
X308400Y-171300
X309200Y-144200
X310700Y-154800
X313300Y-190300
X313400Y-212200
X314000Y-109000
X314400Y-165000
X314700Y-182100
X315000Y-152300
X317300Y-209300
X317600Y-144600
X319300Y-135300
X319900Y-107000
X320200Y-133300
X321100Y-148100
X321400Y-173300
X321500Y-126400
X323400Y-130600
X325700Y-192300
X326500Y-152300
X326600Y-127200
X327000Y-191300
X327200Y-175300
X327499Y-125276
X328400Y-174400
X329000Y-202800
X330600Y-211300
X332800Y-109000
X332900Y-141000
X333000Y-135300
X334100Y-198500
X334100Y-201600
X334700Y-132300
X335400Y-131700
X335600Y-116275
X335600Y-118200
X336100Y-131100
X337000Y-115550
X337000Y-117725
X337000Y-127405
X337000Y-128900
X337400Y-105525
X337400Y-106800
X339000Y-136500
X339600Y-135900
X340300Y-135300
X341400Y-147100
X342900Y-133300
X343000Y-107000
X343100Y-152300
X343100Y-209300
X343200Y-190300
X345100Y-204500
X345100Y-207325
X345300Y-128855
X346000Y-149600
X347200Y-127100
X354500Y-155500
X354500Y-193400
X355200Y-151400
X355600Y-211300
X356100Y-140300
X356400Y-135300
X357700Y-115500
X359000Y-196500
X359000Y-202100
X360700Y-139800
X361900Y-107000
X362000Y-133300
X362000Y-152300
X362200Y-209300
X362300Y-190300
X362500Y-115900
X362500Y-118400
X373500Y-155500
X373500Y-193400
X374700Y-135300
X374700Y-211300
X377300Y-193400
X378100Y-194200
X378800Y-191900
X378900Y-195000
X379600Y-192700
X380500Y-193600
X380800Y-107000
X381000Y-133300
X381200Y-152300
X381200Y-190300
X381200Y-209300
X393700Y-192300
X393700Y-211300
X394000Y-135300
T2
X70370Y-190140
X72910Y-190140
X229920Y-133140
X232460Y-133140
X263220Y-171140
X265760Y-171140
X268020Y-106840
X270560Y-106840
X96570Y-106840
X99110Y-106840
X129870Y-209140
X132410Y-209140
X110820Y-171140
X113360Y-171140
X165620Y-209140
X168160Y-209140
X315670Y-133140
X318210Y-133140
X182270Y-152140
X184810Y-152140
X348970Y-133140
X351510Y-133140
X167970Y-171140
X170510Y-171140
X220370Y-106840
X222910Y-106840
X239420Y-152140
X241960Y-152140
X201320Y-152140
X203860Y-152140
X287070Y-106840
X289610Y-106840
X210870Y-133140
X213410Y-133140
X108470Y-209140
X111010Y-209140
X253770Y-190140
X256310Y-190140
X244170Y-171140
X246710Y-171140
X87020Y-152140
X89560Y-152140
X115620Y-133140
X118160Y-133140
X215670Y-190140
X218210Y-190140
X239420Y-106840
X241960Y-106840
X298970Y-209140
X301510Y-209140
X387070Y-106840
X389610Y-106840
X120420Y-190140
X122960Y-190140
X203770Y-209140
X206310Y-209140
X258470Y-152140
X261010Y-152140
X306120Y-106840
X308660Y-106840
X322820Y-209140
X325360Y-209140
X387070Y-190140
X389610Y-190140
X196620Y-190140
X199160Y-190140
X282270Y-171140
X284810Y-171140
X277520Y-152140
X280060Y-152140
X129870Y-171140
X132410Y-171140
X268020Y-133140
X270560Y-133140
X191820Y-133140
X194360Y-133140
X77520Y-133140
X80060Y-133140
X153720Y-133140
X156260Y-133140
X287070Y-133140
X289610Y-133140
X318070Y-190140
X320610Y-190140
X84670Y-209140
X87210Y-209140
X368020Y-133140
X370560Y-133140
X172770Y-133140
X175310Y-133140
X201320Y-106840
X203860Y-106840
X101370Y-190140
X103910Y-190140
X182270Y-106840
X184810Y-106840
X348970Y-106840
X351510Y-106840
X318990Y-165490
X318990Y-168030
X308570Y-190140
X311110Y-190140
X387070Y-209140
X389610Y-209140
X163220Y-152140
X165760Y-152140
X187020Y-171140
X189560Y-171140
X291870Y-190140
X294410Y-190140
X301320Y-171140
X303860Y-171140
X96570Y-133140
X99110Y-133140
X82320Y-190140
X84860Y-190140
X91770Y-171140
X94310Y-171140
X325170Y-133140
X327710Y-133140
X296570Y-152140
X299110Y-152140
X58470Y-106840
X61010Y-106840
X65620Y-171140
X68160Y-171140
X58470Y-190140
X61010Y-190140
X139470Y-190140
X142010Y-190140
X251370Y-209140
X253910Y-209140
X115620Y-106840
X118160Y-106840
X125120Y-152140
X127660Y-152140
X272820Y-190140
X275360Y-190140
X325170Y-106840
X327710Y-106840
X58470Y-133140
X61010Y-133140
X387070Y-152140
X389610Y-152140
X387070Y-133140
X389610Y-133140
X134670Y-106840
X137210Y-106840
X348970Y-209140
X351510Y-209140
X227570Y-209140
X230110Y-209140
X153720Y-106840
X156260Y-106840
X148920Y-171140
X151460Y-171140
X368020Y-106840
X370560Y-106840
X320420Y-152140
X322960Y-152140
X77520Y-106840
X80060Y-106840
X106070Y-152140
X108610Y-152140
X313170Y-171140
X315710Y-171140
X206070Y-171140
X208610Y-171140
X248970Y-133140
X251510Y-133140
X348970Y-190140
X351510Y-190140
X225120Y-171140
X227660Y-171140
X144170Y-152140
X146710Y-152140
X306120Y-133140
X308660Y-133140
X348970Y-152140
X351510Y-152140
X368020Y-152140
X370560Y-152140
X220370Y-152140
X222910Y-152140
X63170Y-152140
X65710Y-152140
X275170Y-209140
X277710Y-209140
X368020Y-209140
X370560Y-209140
X177570Y-190140
X180110Y-190140
X368020Y-190140
X370560Y-190140
X158520Y-190140
X161060Y-190140
X60870Y-209140
X63410Y-209140
X234720Y-190140
X237260Y-190140
X134670Y-133140
X137210Y-133140
X179870Y-209140
X182410Y-209140
T3
X107200Y-219300
X113550Y-216760
X252500Y-200300
X258850Y-197760
X242900Y-181300
X249250Y-178760
X85750Y-162300
X92100Y-159760
X114350Y-143300
X120700Y-140760
X214400Y-200300
X220750Y-197760
X238150Y-117000
X244500Y-114460
X297700Y-219300
X304050Y-216760
X385800Y-117000
X392150Y-114460
X119150Y-200300
X125500Y-197760
X202500Y-219300
X208850Y-216760
X257200Y-162300
X263550Y-159760
X304850Y-117000
X311200Y-114460
X321550Y-219300
X327900Y-216760
X385800Y-200300
X392150Y-197760
X195350Y-200300
X201700Y-197760
X281000Y-181300
X287350Y-178760
X276250Y-162300
X282600Y-159760
X128600Y-181300
X134950Y-178760
X266750Y-143300
X273100Y-140760
X190550Y-143300
X196900Y-140760
X76250Y-143300
X82600Y-140760
X152450Y-143300
X158800Y-140760
X285800Y-143300
X292150Y-140760
X316800Y-200300
X323150Y-197760
X83400Y-219300
X89750Y-216760
X366750Y-143300
X373100Y-140760
X171500Y-143300
X177850Y-140760
X200050Y-117000
X206400Y-114460
X100100Y-200300
X106450Y-197760
X181000Y-117000
X187350Y-114460
X347700Y-117000
X354050Y-114460
X326610Y-162950
X329150Y-169300
X307300Y-200300
X313650Y-197760
X385800Y-219300
X392150Y-216760
X161950Y-162300
X168300Y-159760
X185750Y-181300
X192100Y-178760
X290600Y-200300
X296950Y-197760
X300050Y-181300
X306400Y-178760
X95300Y-143300
X101650Y-140760
X81050Y-200300
X87400Y-197760
X90500Y-181300
X96850Y-178760
X323900Y-143300
X330250Y-140760
X295300Y-162300
X301650Y-159760
X57200Y-117000
X63550Y-114460
X64350Y-181300
X70700Y-178760
X57200Y-200300
X63550Y-197760
X138200Y-200300
X144550Y-197760
X250100Y-219300
X256450Y-216760
X114350Y-117000
X120700Y-114460
X123850Y-162300
X130200Y-159760
X271550Y-200300
X277900Y-197760
X323900Y-117000
X330250Y-114460
X57200Y-143300
X63550Y-140760
X385800Y-162300
X392150Y-159760
X385800Y-143300
X392150Y-140760
X133400Y-117000
X139750Y-114460
X347700Y-219300
X354050Y-216760
X226300Y-219300
X232650Y-216760
X152450Y-117000
X158800Y-114460
X147650Y-181300
X154000Y-178760
X366750Y-117000
X373100Y-114460
X319150Y-162300
X325500Y-159760
X76250Y-117000
X82600Y-114460
X104800Y-162300
X111150Y-159760
X311900Y-181300
X318250Y-178760
X204800Y-181300
X211150Y-178760
X247700Y-143300
X254050Y-140760
X347700Y-200300
X354050Y-197760
X223850Y-181300
X230200Y-178760
X142900Y-162300
X149250Y-159760
X304850Y-143300
X311200Y-140760
X347700Y-162300
X354050Y-159760
X366750Y-162300
X373100Y-159760
X219100Y-162300
X225450Y-159760
X61900Y-162300
X68250Y-159760
X273900Y-219300
X280250Y-216760
X366750Y-219300
X373100Y-216760
X176300Y-200300
X182650Y-197760
X366750Y-200300
X373100Y-197760
X157250Y-200300
X163600Y-197760
X59600Y-219300
X65950Y-216760
X233450Y-200300
X239800Y-197760
X133400Y-143300
X139750Y-140760
X178600Y-219300
X184950Y-216760
X69100Y-200300
X75450Y-197760
X228650Y-143300
X235000Y-140760
X261950Y-181300
X268300Y-178760
X266750Y-117000
X273100Y-114460
X95300Y-117000
X101650Y-114460
X128600Y-219300
X134950Y-216760
X109550Y-181300
X115900Y-178760
X164350Y-219300
X170700Y-216760
X314400Y-143300
X320750Y-140760
X181000Y-162300
X187350Y-159760
X347700Y-143300
X354050Y-140760
X166700Y-181300
X173050Y-178760
X219100Y-117000
X225450Y-114460
X238150Y-162300
X244500Y-159760
X200050Y-162300
X206400Y-159760
X285800Y-117000
X292150Y-114460
X209600Y-143300
X215950Y-140760
T4
X207060Y-138220
X217220Y-138220
X104660Y-214220
X114820Y-214220
X249960Y-195220
X260120Y-195220
X240360Y-176220
X250520Y-176220
X83210Y-157220
X93370Y-157220
X111810Y-138220
X121970Y-138220
X211860Y-195220
X222020Y-195220
X235610Y-111920
X245770Y-111920
X295160Y-214220
X305320Y-214220
X383260Y-111920
X393420Y-111920
X116610Y-195220
X126770Y-195220
X199960Y-214220
X210120Y-214220
X254660Y-157220
X264820Y-157220
X302310Y-111920
X312470Y-111920
X319010Y-214220
X329170Y-214220
X383260Y-195220
X393420Y-195220
X192810Y-195220
X202970Y-195220
X278460Y-176220
X288620Y-176220
X273710Y-157220
X283870Y-157220
X126060Y-176220
X136220Y-176220
X264210Y-138220
X274370Y-138220
X188010Y-138220
X198170Y-138220
X73710Y-138220
X83870Y-138220
X149910Y-138220
X160070Y-138220
X283260Y-138220
X293420Y-138220
X314260Y-195220
X324420Y-195220
X80860Y-214220
X91020Y-214220
X364210Y-138220
X374370Y-138220
X168960Y-138220
X179120Y-138220
X197510Y-111920
X207670Y-111920
X97560Y-195220
X107720Y-195220
X178460Y-111920
X188620Y-111920
X345160Y-111920
X355320Y-111920
X324070Y-161680
X324070Y-171840
X304760Y-195220
X314920Y-195220
X383260Y-214220
X393420Y-214220
X159410Y-157220
X169570Y-157220
X183210Y-176220
X193370Y-176220
X288060Y-195220
X298220Y-195220
X297510Y-176220
X307670Y-176220
X92760Y-138220
X102920Y-138220
X78510Y-195220
X88670Y-195220
X87960Y-176220
X98120Y-176220
X321360Y-138220
X331520Y-138220
X292760Y-157220
X302920Y-157220
X54660Y-111920
X64820Y-111920
X61810Y-176220
X71970Y-176220
X54660Y-195220
X64820Y-195220
X135660Y-195220
X145820Y-195220
X247560Y-214220
X257720Y-214220
X111810Y-111920
X121970Y-111920
X121310Y-157220
X131470Y-157220
X269010Y-195220
X279170Y-195220
X321360Y-111920
X331520Y-111920
X54660Y-138220
X64820Y-138220
X383260Y-157220
X393420Y-157220
X383260Y-138220
X393420Y-138220
X130860Y-111920
X141020Y-111920
X345160Y-214220
X355320Y-214220
X223760Y-214220
X233920Y-214220
X149910Y-111920
X160070Y-111920
X145110Y-176220
X155270Y-176220
X364210Y-111920
X374370Y-111920
X316610Y-157220
X326770Y-157220
X73710Y-111920
X83870Y-111920
X102260Y-157220
X112420Y-157220
X309360Y-176220
X319520Y-176220
X202260Y-176220
X212420Y-176220
X245160Y-138220
X255320Y-138220
X345160Y-195220
X355320Y-195220
X221310Y-176220
X231470Y-176220
X140360Y-157220
X150520Y-157220
X302310Y-138220
X312470Y-138220
X345160Y-157220
X355320Y-157220
X364210Y-157220
X374370Y-157220
X216560Y-157220
X226720Y-157220
X59360Y-157220
X69520Y-157220
X271360Y-214220
X281520Y-214220
X364210Y-214220
X374370Y-214220
X173760Y-195220
X183920Y-195220
X364210Y-195220
X374370Y-195220
X154710Y-195220
X164870Y-195220
X57060Y-214220
X67220Y-214220
X230910Y-195220
X241070Y-195220
X130860Y-138220
X141020Y-138220
X176060Y-214220
X186220Y-214220
X66560Y-195220
X76720Y-195220
X226110Y-138220
X236270Y-138220
X259410Y-176220
X269570Y-176220
X264210Y-111920
X274370Y-111920
X92760Y-111920
X102920Y-111920
X126060Y-214220
X136220Y-214220
X107010Y-176220
X117170Y-176220
X161810Y-214220
X171970Y-214220
X311860Y-138220
X322020Y-138220
X178460Y-157220
X188620Y-157220
X345160Y-138220
X355320Y-138220
X164160Y-176220
X174320Y-176220
X216560Y-111920
X226720Y-111920
X235610Y-157220
X245770Y-157220
X197510Y-157220
X207670Y-157220
X283260Y-111920
X293420Y-111920
T5
X317070Y-154860
X317070Y-178660
X297940Y-186980
X321740Y-186980
X302540Y-167980
X326340Y-167980
X131140Y-221220
X231140Y-221220
X59740Y-186980
X83540Y-186980
X154990Y-221220
X178790Y-221220
X305040Y-129980
X328840Y-129980
T6
X302540Y-183220
X314440Y-176220
X326340Y-183220
X207340Y-176220
X250240Y-138220
X350240Y-195220
X226390Y-176220
X145440Y-157220
X307390Y-138220
X350240Y-157220
X369290Y-157220
X221640Y-157220
X64440Y-157220
X276440Y-214220
X369290Y-214220
X178840Y-195220
X369290Y-195220
X159790Y-195220
X62140Y-214220
X235990Y-195220
X135940Y-138220
X131140Y-205980
X181140Y-214220
X231140Y-205980
X59740Y-202220
X71640Y-195220
X83540Y-202220
X231190Y-138220
X264490Y-176220
X269290Y-111920
X97840Y-111920
X131140Y-214220
X112090Y-176220
X154990Y-205980
X166890Y-214220
X178790Y-205980
X305040Y-145220
X316940Y-138220
X328840Y-145220
X183540Y-157220
X350240Y-138220
X169240Y-176220
X221640Y-111920
X240690Y-157220
X202590Y-157220
X288340Y-111920
X212140Y-138220
X109740Y-214220
X255040Y-195220
X245440Y-176220
X88290Y-157220
X116890Y-138220
X216940Y-195220
X240690Y-111920
X300240Y-214220
X388340Y-111920
X121690Y-195220
X205040Y-214220
X259740Y-157220
X307390Y-111920
X324090Y-214220
X388340Y-195220
X197890Y-195220
X283540Y-176220
X278790Y-157220
X131140Y-176220
X269290Y-138220
X193090Y-138220
X78790Y-138220
X154990Y-138220
X288340Y-138220
X319340Y-195220
X85940Y-214220
X369290Y-138220
X174040Y-138220
X202590Y-111920
X102640Y-195220
X183540Y-111920
X350240Y-111920
X324070Y-166760
X332310Y-154860
X332310Y-178660
X297940Y-202220
X309840Y-195220
X321740Y-202220
X388340Y-214220
X164490Y-157220
X188290Y-176220
X293140Y-195220
X302590Y-176220
X97840Y-138220
X83590Y-195220
X93040Y-176220
X326440Y-138220
X297840Y-157220
X59740Y-111920
X66890Y-176220
X59740Y-195220
X140740Y-195220
X252640Y-214220
X116890Y-111920
X126390Y-157220
X274090Y-195220
X326440Y-111920
X59740Y-138220
X388340Y-157220
X388340Y-138220
X135940Y-111920
X350240Y-214220
X228840Y-214220
X154990Y-111920
X150190Y-176220
X369290Y-111920
X321690Y-157220
X78790Y-111920
X107340Y-157220
T0
M30
