G04 #@! TF.GenerationSoftware,KiCad,Pcbnew,5.1.5-52549c5~84~ubuntu16.04.1*
G04 #@! TF.CreationDate,2019-12-22T20:02:01+06:00*
G04 #@! TF.ProjectId,wasd-keyboard,77617364-2d6b-4657-9962-6f6172642e6b,rev?*
G04 #@! TF.SameCoordinates,Original*
G04 #@! TF.FileFunction,Soldermask,Top*
G04 #@! TF.FilePolarity,Negative*
%FSLAX46Y46*%
G04 Gerber Fmt 4.6, Leading zero omitted, Abs format (unit mm)*
G04 Created by KiCad (PCBNEW 5.1.5-52549c5~84~ubuntu16.04.1) date 2019-12-22 20:02:01*
%MOMM*%
%LPD*%
G04 APERTURE LIST*
%ADD10C,2.600000*%
%ADD11C,4.400000*%
%ADD12C,2.100000*%
%ADD13C,3.450000*%
G04 APERTURE END LIST*
D10*
X57500000Y-117000000D03*
X63850000Y-114460000D03*
D11*
X60040000Y-111920000D03*
D12*
X65120000Y-111920000D03*
X54960000Y-111920000D03*
X58770000Y-106840000D03*
X61310000Y-106840000D03*
D10*
X76500000Y-117000000D03*
X82850000Y-114460000D03*
D11*
X79040000Y-111920000D03*
D12*
X84120000Y-111920000D03*
X73960000Y-111920000D03*
X77770000Y-106840000D03*
X80310000Y-106840000D03*
D10*
X95500000Y-117000000D03*
X101850000Y-114460000D03*
D11*
X98040000Y-111920000D03*
D12*
X103120000Y-111920000D03*
X92960000Y-111920000D03*
X96770000Y-106840000D03*
X99310000Y-106840000D03*
D10*
X114500000Y-117000000D03*
X120850000Y-114460000D03*
D11*
X117040000Y-111920000D03*
D12*
X122120000Y-111920000D03*
X111960000Y-111920000D03*
X115770000Y-106840000D03*
X118310000Y-106840000D03*
D10*
X133500000Y-117000000D03*
X139850000Y-114460000D03*
D11*
X136040000Y-111920000D03*
D12*
X141120000Y-111920000D03*
X130960000Y-111920000D03*
X134770000Y-106840000D03*
X137310000Y-106840000D03*
X156310000Y-106840000D03*
X153770000Y-106840000D03*
X149960000Y-111920000D03*
X160120000Y-111920000D03*
D11*
X155040000Y-111920000D03*
D10*
X158850000Y-114460000D03*
X152500000Y-117000000D03*
D12*
X184810000Y-106840000D03*
X182270000Y-106840000D03*
X178460000Y-111920000D03*
X188620000Y-111920000D03*
D11*
X183540000Y-111920000D03*
D10*
X187350000Y-114460000D03*
X181000000Y-117000000D03*
X200000000Y-117000000D03*
X206350000Y-114460000D03*
D11*
X202540000Y-111920000D03*
D12*
X207620000Y-111920000D03*
X197460000Y-111920000D03*
X201270000Y-106840000D03*
X203810000Y-106840000D03*
X222810000Y-106840000D03*
X220270000Y-106840000D03*
X216460000Y-111920000D03*
X226620000Y-111920000D03*
D11*
X221540000Y-111920000D03*
D10*
X225350000Y-114460000D03*
X219000000Y-117000000D03*
X238000000Y-117000000D03*
X244350000Y-114460000D03*
D11*
X240540000Y-111920000D03*
D12*
X245620000Y-111920000D03*
X235460000Y-111920000D03*
X239270000Y-106840000D03*
X241810000Y-106840000D03*
D10*
X266500000Y-117000000D03*
X272850000Y-114460000D03*
D11*
X269040000Y-111920000D03*
D12*
X274120000Y-111920000D03*
X263960000Y-111920000D03*
X267770000Y-106840000D03*
X270310000Y-106840000D03*
X289310000Y-106840000D03*
X286770000Y-106840000D03*
X282960000Y-111920000D03*
X293120000Y-111920000D03*
D11*
X288040000Y-111920000D03*
D10*
X291850000Y-114460000D03*
X285500000Y-117000000D03*
X304500000Y-117000000D03*
X310850000Y-114460000D03*
D11*
X307040000Y-111920000D03*
D12*
X312120000Y-111920000D03*
X301960000Y-111920000D03*
X305770000Y-106840000D03*
X308310000Y-106840000D03*
X327310000Y-106840000D03*
X324770000Y-106840000D03*
X320960000Y-111920000D03*
X331120000Y-111920000D03*
D11*
X326040000Y-111920000D03*
D10*
X329850000Y-114460000D03*
X323500000Y-117000000D03*
D12*
X350710000Y-106840000D03*
X348170000Y-106840000D03*
X344360000Y-111920000D03*
X354520000Y-111920000D03*
D11*
X349440000Y-111920000D03*
D10*
X353250000Y-114460000D03*
X346900000Y-117000000D03*
X365900000Y-117000000D03*
X372250000Y-114460000D03*
D11*
X368440000Y-111920000D03*
D12*
X373520000Y-111920000D03*
X363360000Y-111920000D03*
X367170000Y-106840000D03*
X369710000Y-106840000D03*
X388710000Y-106840000D03*
X386170000Y-106840000D03*
X382360000Y-111920000D03*
X392520000Y-111920000D03*
D11*
X387440000Y-111920000D03*
D10*
X391250000Y-114460000D03*
X384900000Y-117000000D03*
D12*
X61310000Y-133140000D03*
X58770000Y-133140000D03*
X54960000Y-138220000D03*
X65120000Y-138220000D03*
D11*
X60040000Y-138220000D03*
D10*
X63850000Y-140760000D03*
X57500000Y-143300000D03*
X76500000Y-143300000D03*
X82850000Y-140760000D03*
D11*
X79040000Y-138220000D03*
D12*
X84120000Y-138220000D03*
X73960000Y-138220000D03*
X77770000Y-133140000D03*
X80310000Y-133140000D03*
X99310000Y-133140000D03*
X96770000Y-133140000D03*
X92960000Y-138220000D03*
X103120000Y-138220000D03*
D11*
X98040000Y-138220000D03*
D10*
X101850000Y-140760000D03*
X95500000Y-143300000D03*
X114500000Y-143300000D03*
X120850000Y-140760000D03*
D11*
X117040000Y-138220000D03*
D12*
X122120000Y-138220000D03*
X111960000Y-138220000D03*
X115770000Y-133140000D03*
X118310000Y-133140000D03*
D10*
X133500000Y-143300000D03*
X139850000Y-140760000D03*
D11*
X136040000Y-138220000D03*
D12*
X141120000Y-138220000D03*
X130960000Y-138220000D03*
X134770000Y-133140000D03*
X137310000Y-133140000D03*
D10*
X152500000Y-143300000D03*
X158850000Y-140760000D03*
D11*
X155040000Y-138220000D03*
D12*
X160120000Y-138220000D03*
X149960000Y-138220000D03*
X153770000Y-133140000D03*
X156310000Y-133140000D03*
D10*
X171500000Y-143300000D03*
X177850000Y-140760000D03*
D11*
X174040000Y-138220000D03*
D12*
X179120000Y-138220000D03*
X168960000Y-138220000D03*
X172770000Y-133140000D03*
X175310000Y-133140000D03*
X194310000Y-133140000D03*
X191770000Y-133140000D03*
X187960000Y-138220000D03*
X198120000Y-138220000D03*
D11*
X193040000Y-138220000D03*
D10*
X196850000Y-140760000D03*
X190500000Y-143300000D03*
X209500000Y-143300000D03*
X215850000Y-140760000D03*
D11*
X212040000Y-138220000D03*
D12*
X217120000Y-138220000D03*
X206960000Y-138220000D03*
X210770000Y-133140000D03*
X213310000Y-133140000D03*
D10*
X228500000Y-143300000D03*
X234850000Y-140760000D03*
D11*
X231040000Y-138220000D03*
D12*
X236120000Y-138220000D03*
X225960000Y-138220000D03*
X229770000Y-133140000D03*
X232310000Y-133140000D03*
D10*
X247500000Y-143300000D03*
X253850000Y-140760000D03*
D11*
X250040000Y-138220000D03*
D12*
X255120000Y-138220000D03*
X244960000Y-138220000D03*
X248770000Y-133140000D03*
X251310000Y-133140000D03*
D10*
X266500000Y-143300000D03*
X272850000Y-140760000D03*
D11*
X269040000Y-138220000D03*
D12*
X274120000Y-138220000D03*
X263960000Y-138220000D03*
X267770000Y-133140000D03*
X270310000Y-133140000D03*
D10*
X285500000Y-143300000D03*
X291850000Y-140760000D03*
D11*
X288040000Y-138220000D03*
D12*
X293120000Y-138220000D03*
X282960000Y-138220000D03*
X286770000Y-133140000D03*
X289310000Y-133140000D03*
D10*
X304500000Y-143300000D03*
X310850000Y-140760000D03*
D11*
X307040000Y-138220000D03*
D12*
X312120000Y-138220000D03*
X301960000Y-138220000D03*
X305770000Y-133140000D03*
X308310000Y-133140000D03*
D10*
X323500000Y-143300000D03*
X329850000Y-140760000D03*
D11*
X326040000Y-138220000D03*
D12*
X331120000Y-138220000D03*
X320960000Y-138220000D03*
X324770000Y-133140000D03*
X327310000Y-133140000D03*
D10*
X346900000Y-143300000D03*
X353250000Y-140760000D03*
D11*
X349440000Y-138220000D03*
D12*
X354520000Y-138220000D03*
X344360000Y-138220000D03*
X348170000Y-133140000D03*
X350710000Y-133140000D03*
D10*
X365900000Y-143300000D03*
X372250000Y-140760000D03*
D11*
X368440000Y-138220000D03*
D12*
X373520000Y-138220000D03*
X363360000Y-138220000D03*
X367170000Y-133140000D03*
X369710000Y-133140000D03*
X388710000Y-133140000D03*
X386170000Y-133140000D03*
X382360000Y-138220000D03*
X392520000Y-138220000D03*
D11*
X387440000Y-138220000D03*
D10*
X391250000Y-140760000D03*
X384900000Y-143300000D03*
D12*
X89810000Y-152140000D03*
X87270000Y-152140000D03*
X83460000Y-157220000D03*
X93620000Y-157220000D03*
D11*
X88540000Y-157220000D03*
D10*
X92350000Y-159760000D03*
X86000000Y-162300000D03*
D12*
X108810000Y-152140000D03*
X106270000Y-152140000D03*
X102460000Y-157220000D03*
X112620000Y-157220000D03*
D11*
X107540000Y-157220000D03*
D10*
X111350000Y-159760000D03*
X105000000Y-162300000D03*
D12*
X127810000Y-152140000D03*
X125270000Y-152140000D03*
X121460000Y-157220000D03*
X131620000Y-157220000D03*
D11*
X126540000Y-157220000D03*
D10*
X130350000Y-159760000D03*
X124000000Y-162300000D03*
D12*
X146810000Y-152140000D03*
X144270000Y-152140000D03*
X140460000Y-157220000D03*
X150620000Y-157220000D03*
D11*
X145540000Y-157220000D03*
D10*
X149350000Y-159760000D03*
X143000000Y-162300000D03*
D12*
X165810000Y-152140000D03*
X163270000Y-152140000D03*
X159460000Y-157220000D03*
X169620000Y-157220000D03*
D11*
X164540000Y-157220000D03*
D10*
X168350000Y-159760000D03*
X162000000Y-162300000D03*
X181000000Y-162300000D03*
X187350000Y-159760000D03*
D11*
X183540000Y-157220000D03*
D12*
X188620000Y-157220000D03*
X178460000Y-157220000D03*
X182270000Y-152140000D03*
X184810000Y-152140000D03*
X203810000Y-152140000D03*
X201270000Y-152140000D03*
X197460000Y-157220000D03*
X207620000Y-157220000D03*
D11*
X202540000Y-157220000D03*
D10*
X206350000Y-159760000D03*
X200000000Y-162300000D03*
D12*
X222810000Y-152140000D03*
X220270000Y-152140000D03*
X216460000Y-157220000D03*
X226620000Y-157220000D03*
D11*
X221540000Y-157220000D03*
D10*
X225350000Y-159760000D03*
X219000000Y-162300000D03*
D12*
X241810000Y-152140000D03*
X239270000Y-152140000D03*
X235460000Y-157220000D03*
X245620000Y-157220000D03*
D11*
X240540000Y-157220000D03*
D10*
X244350000Y-159760000D03*
X238000000Y-162300000D03*
D12*
X260810000Y-152140000D03*
X258270000Y-152140000D03*
X254460000Y-157220000D03*
X264620000Y-157220000D03*
D11*
X259540000Y-157220000D03*
D10*
X263350000Y-159760000D03*
X257000000Y-162300000D03*
D12*
X279810000Y-152140000D03*
X277270000Y-152140000D03*
X273460000Y-157220000D03*
X283620000Y-157220000D03*
D11*
X278540000Y-157220000D03*
D10*
X282350000Y-159760000D03*
X276000000Y-162300000D03*
D12*
X298810000Y-152140000D03*
X296270000Y-152140000D03*
X292460000Y-157220000D03*
X302620000Y-157220000D03*
D11*
X297540000Y-157220000D03*
D10*
X301350000Y-159760000D03*
X295000000Y-162300000D03*
X346900000Y-162300000D03*
X353250000Y-159760000D03*
D11*
X349440000Y-157220000D03*
D12*
X354520000Y-157220000D03*
X344360000Y-157220000D03*
X348170000Y-152140000D03*
X350710000Y-152140000D03*
D10*
X365900000Y-162300000D03*
X372250000Y-159760000D03*
D11*
X368440000Y-157220000D03*
D12*
X373520000Y-157220000D03*
X363360000Y-157220000D03*
X367170000Y-152140000D03*
X369710000Y-152140000D03*
D10*
X384900000Y-162300000D03*
X391250000Y-159760000D03*
D11*
X387440000Y-157220000D03*
D12*
X392520000Y-157220000D03*
X382360000Y-157220000D03*
X386170000Y-152140000D03*
X388710000Y-152140000D03*
D10*
X90700000Y-181300000D03*
X97050000Y-178760000D03*
D11*
X93240000Y-176220000D03*
D12*
X98320000Y-176220000D03*
X88160000Y-176220000D03*
X91970000Y-171140000D03*
X94510000Y-171140000D03*
D10*
X109700000Y-181300000D03*
X116050000Y-178760000D03*
D11*
X112240000Y-176220000D03*
D12*
X117320000Y-176220000D03*
X107160000Y-176220000D03*
X110970000Y-171140000D03*
X113510000Y-171140000D03*
D10*
X128700000Y-181300000D03*
X135050000Y-178760000D03*
D11*
X131240000Y-176220000D03*
D12*
X136320000Y-176220000D03*
X126160000Y-176220000D03*
X129970000Y-171140000D03*
X132510000Y-171140000D03*
D10*
X147700000Y-181300000D03*
X154050000Y-178760000D03*
D11*
X150240000Y-176220000D03*
D12*
X155320000Y-176220000D03*
X145160000Y-176220000D03*
X148970000Y-171140000D03*
X151510000Y-171140000D03*
D10*
X166700000Y-181300000D03*
X173050000Y-178760000D03*
D11*
X169240000Y-176220000D03*
D12*
X174320000Y-176220000D03*
X164160000Y-176220000D03*
X167970000Y-171140000D03*
X170510000Y-171140000D03*
D10*
X185700000Y-181300000D03*
X192050000Y-178760000D03*
D11*
X188240000Y-176220000D03*
D12*
X193320000Y-176220000D03*
X183160000Y-176220000D03*
X186970000Y-171140000D03*
X189510000Y-171140000D03*
D10*
X204700000Y-181300000D03*
X211050000Y-178760000D03*
D11*
X207240000Y-176220000D03*
D12*
X212320000Y-176220000D03*
X202160000Y-176220000D03*
X205970000Y-171140000D03*
X208510000Y-171140000D03*
D10*
X223700000Y-181300000D03*
X230050000Y-178760000D03*
D11*
X226240000Y-176220000D03*
D12*
X231320000Y-176220000D03*
X221160000Y-176220000D03*
X224970000Y-171140000D03*
X227510000Y-171140000D03*
D10*
X242700000Y-181300000D03*
X249050000Y-178760000D03*
D11*
X245240000Y-176220000D03*
D12*
X250320000Y-176220000D03*
X240160000Y-176220000D03*
X243970000Y-171140000D03*
X246510000Y-171140000D03*
X265510000Y-171140000D03*
X262970000Y-171140000D03*
X259160000Y-176220000D03*
X269320000Y-176220000D03*
D11*
X264240000Y-176220000D03*
D10*
X268050000Y-178760000D03*
X261700000Y-181300000D03*
D12*
X284510000Y-171140000D03*
X281970000Y-171140000D03*
X278160000Y-176220000D03*
X288320000Y-176220000D03*
D11*
X283240000Y-176220000D03*
D10*
X287050000Y-178760000D03*
X280700000Y-181300000D03*
D12*
X303510000Y-171140000D03*
X300970000Y-171140000D03*
X297160000Y-176220000D03*
X307320000Y-176220000D03*
D11*
X302240000Y-176220000D03*
D10*
X306050000Y-178760000D03*
X299700000Y-181300000D03*
D12*
X61310000Y-190140000D03*
X58770000Y-190140000D03*
X54960000Y-195220000D03*
X65120000Y-195220000D03*
D11*
X60040000Y-195220000D03*
D10*
X63850000Y-197760000D03*
X57500000Y-200300000D03*
D12*
X85110000Y-190140000D03*
X82570000Y-190140000D03*
X78760000Y-195220000D03*
X88920000Y-195220000D03*
D11*
X83840000Y-195220000D03*
D10*
X87650000Y-197760000D03*
X81300000Y-200300000D03*
D12*
X104110000Y-190140000D03*
X101570000Y-190140000D03*
X97760000Y-195220000D03*
X107920000Y-195220000D03*
D11*
X102840000Y-195220000D03*
D10*
X106650000Y-197760000D03*
X100300000Y-200300000D03*
D12*
X123110000Y-190140000D03*
X120570000Y-190140000D03*
X116760000Y-195220000D03*
X126920000Y-195220000D03*
D11*
X121840000Y-195220000D03*
D10*
X125650000Y-197760000D03*
X119300000Y-200300000D03*
D12*
X142110000Y-190140000D03*
X139570000Y-190140000D03*
X135760000Y-195220000D03*
X145920000Y-195220000D03*
D11*
X140840000Y-195220000D03*
D10*
X144650000Y-197760000D03*
X138300000Y-200300000D03*
D12*
X161110000Y-190140000D03*
X158570000Y-190140000D03*
X154760000Y-195220000D03*
X164920000Y-195220000D03*
D11*
X159840000Y-195220000D03*
D10*
X163650000Y-197760000D03*
X157300000Y-200300000D03*
D12*
X180110000Y-190140000D03*
X177570000Y-190140000D03*
X173760000Y-195220000D03*
X183920000Y-195220000D03*
D11*
X178840000Y-195220000D03*
D10*
X182650000Y-197760000D03*
X176300000Y-200300000D03*
D12*
X199110000Y-190140000D03*
X196570000Y-190140000D03*
X192760000Y-195220000D03*
X202920000Y-195220000D03*
D11*
X197840000Y-195220000D03*
D10*
X201650000Y-197760000D03*
X195300000Y-200300000D03*
D12*
X218110000Y-190140000D03*
X215570000Y-190140000D03*
X211760000Y-195220000D03*
X221920000Y-195220000D03*
D11*
X216840000Y-195220000D03*
D10*
X220650000Y-197760000D03*
X214300000Y-200300000D03*
D12*
X237110000Y-190140000D03*
X234570000Y-190140000D03*
X230760000Y-195220000D03*
X240920000Y-195220000D03*
D11*
X235840000Y-195220000D03*
D10*
X239650000Y-197760000D03*
X233300000Y-200300000D03*
D12*
X256110000Y-190140000D03*
X253570000Y-190140000D03*
X249760000Y-195220000D03*
X259920000Y-195220000D03*
D11*
X254840000Y-195220000D03*
D10*
X258650000Y-197760000D03*
X252300000Y-200300000D03*
D12*
X275110000Y-190140000D03*
X272570000Y-190140000D03*
X268760000Y-195220000D03*
X278920000Y-195220000D03*
D11*
X273840000Y-195220000D03*
D10*
X277650000Y-197760000D03*
X271300000Y-200300000D03*
X290300000Y-200300000D03*
X296650000Y-197760000D03*
D11*
X292840000Y-195220000D03*
D12*
X297920000Y-195220000D03*
X287760000Y-195220000D03*
X291570000Y-190140000D03*
X294110000Y-190140000D03*
X350710000Y-190140000D03*
X348170000Y-190140000D03*
X344360000Y-195220000D03*
X354520000Y-195220000D03*
D11*
X349440000Y-195220000D03*
D10*
X353250000Y-197760000D03*
X346900000Y-200300000D03*
D12*
X369710000Y-190140000D03*
X367170000Y-190140000D03*
X363360000Y-195220000D03*
X373520000Y-195220000D03*
D11*
X368440000Y-195220000D03*
D10*
X372250000Y-197760000D03*
X365900000Y-200300000D03*
X384900000Y-200300000D03*
X391250000Y-197760000D03*
D11*
X387440000Y-195220000D03*
D12*
X392520000Y-195220000D03*
X382360000Y-195220000D03*
X386170000Y-190140000D03*
X388710000Y-190140000D03*
D10*
X128600000Y-219300000D03*
X134950000Y-216760000D03*
D11*
X131140000Y-214220000D03*
D12*
X136220000Y-214220000D03*
X126060000Y-214220000D03*
X129870000Y-209140000D03*
X132410000Y-209140000D03*
D10*
X314000000Y-143300000D03*
X320350000Y-140760000D03*
D11*
X316540000Y-138220000D03*
D12*
X321620000Y-138220000D03*
X311460000Y-138220000D03*
D11*
X304640000Y-145220000D03*
X328440000Y-145220000D03*
D13*
X328440000Y-129980000D03*
X304640000Y-129980000D03*
D12*
X315270000Y-133140000D03*
X317810000Y-133140000D03*
D10*
X62300000Y-162300000D03*
X68650000Y-159760000D03*
D11*
X64840000Y-157220000D03*
D12*
X69920000Y-157220000D03*
X59760000Y-157220000D03*
X63570000Y-152140000D03*
X66110000Y-152140000D03*
D10*
X64600000Y-181300000D03*
X70950000Y-178760000D03*
D11*
X67140000Y-176220000D03*
D12*
X72220000Y-176220000D03*
X62060000Y-176220000D03*
X65870000Y-171140000D03*
X68410000Y-171140000D03*
D10*
X318700000Y-162300000D03*
X325050000Y-159760000D03*
D11*
X321240000Y-157220000D03*
D12*
X326320000Y-157220000D03*
X316160000Y-157220000D03*
X319970000Y-152140000D03*
X322510000Y-152140000D03*
D10*
X69400000Y-200300000D03*
X75750000Y-197760000D03*
D11*
X71940000Y-195220000D03*
D12*
X77020000Y-195220000D03*
X66860000Y-195220000D03*
D11*
X60040000Y-202220000D03*
X83840000Y-202220000D03*
D13*
X83840000Y-186980000D03*
X60040000Y-186980000D03*
D12*
X70670000Y-190140000D03*
X73210000Y-190140000D03*
D10*
X306900000Y-200300000D03*
X313250000Y-197760000D03*
D11*
X309440000Y-195220000D03*
D12*
X314520000Y-195220000D03*
X304360000Y-195220000D03*
D11*
X297540000Y-202220000D03*
X321340000Y-202220000D03*
D13*
X321340000Y-186980000D03*
X297540000Y-186980000D03*
D12*
X310710000Y-190140000D03*
X308170000Y-190140000D03*
D10*
X316400000Y-200300000D03*
X322750000Y-197760000D03*
D11*
X318940000Y-195220000D03*
D12*
X324020000Y-195220000D03*
X313860000Y-195220000D03*
X317670000Y-190140000D03*
X320210000Y-190140000D03*
D10*
X365900000Y-219300000D03*
X372250000Y-216760000D03*
D11*
X368440000Y-214220000D03*
D12*
X373520000Y-214220000D03*
X363360000Y-214220000D03*
X367170000Y-209140000D03*
X369710000Y-209140000D03*
D10*
X384900000Y-219300000D03*
X391250000Y-216760000D03*
D11*
X387440000Y-214220000D03*
D12*
X392520000Y-214220000D03*
X382360000Y-214220000D03*
X386170000Y-209140000D03*
X388710000Y-209140000D03*
X61170000Y-209140000D03*
X63710000Y-209140000D03*
X57360000Y-214220000D03*
X67520000Y-214220000D03*
D11*
X62440000Y-214220000D03*
D10*
X66250000Y-216760000D03*
X59900000Y-219300000D03*
X83600000Y-219300000D03*
X89950000Y-216760000D03*
D11*
X86140000Y-214220000D03*
D12*
X91220000Y-214220000D03*
X81060000Y-214220000D03*
X87410000Y-209140000D03*
X84870000Y-209140000D03*
D10*
X107300000Y-219300000D03*
X113650000Y-216760000D03*
D11*
X109840000Y-214220000D03*
D12*
X114920000Y-214220000D03*
X104760000Y-214220000D03*
X111110000Y-209140000D03*
X108570000Y-209140000D03*
D10*
X178600000Y-219300000D03*
X184950000Y-216760000D03*
D11*
X181140000Y-214220000D03*
D12*
X186220000Y-214220000D03*
X176060000Y-214220000D03*
D11*
X131140000Y-205980000D03*
X231140000Y-205980000D03*
D13*
X231140000Y-221220000D03*
X131140000Y-221220000D03*
D12*
X179870000Y-209140000D03*
X182410000Y-209140000D03*
D10*
X250000000Y-219300000D03*
X256350000Y-216760000D03*
D11*
X252540000Y-214220000D03*
D12*
X257620000Y-214220000D03*
X247460000Y-214220000D03*
X253810000Y-209140000D03*
X251270000Y-209140000D03*
X274970000Y-209140000D03*
X277510000Y-209140000D03*
X271160000Y-214220000D03*
X281320000Y-214220000D03*
D11*
X276240000Y-214220000D03*
D10*
X280050000Y-216760000D03*
X273700000Y-219300000D03*
X297400000Y-219300000D03*
X303750000Y-216760000D03*
D11*
X299940000Y-214220000D03*
D12*
X305020000Y-214220000D03*
X294860000Y-214220000D03*
X301210000Y-209140000D03*
X298670000Y-209140000D03*
X322370000Y-209140000D03*
X324910000Y-209140000D03*
X318560000Y-214220000D03*
X328720000Y-214220000D03*
D11*
X323640000Y-214220000D03*
D10*
X327450000Y-216760000D03*
X321100000Y-219300000D03*
X346900000Y-219300000D03*
X353250000Y-216760000D03*
D11*
X349440000Y-214220000D03*
D12*
X354520000Y-214220000D03*
X344360000Y-214220000D03*
X348170000Y-209140000D03*
X350710000Y-209140000D03*
D10*
X202600000Y-219300000D03*
X208950000Y-216760000D03*
D11*
X205140000Y-214220000D03*
D12*
X210220000Y-214220000D03*
X200060000Y-214220000D03*
X206410000Y-209140000D03*
X203870000Y-209140000D03*
X227570000Y-209140000D03*
X230110000Y-209140000D03*
X223760000Y-214220000D03*
X233920000Y-214220000D03*
D11*
X228840000Y-214220000D03*
D10*
X232650000Y-216760000D03*
X226300000Y-219300000D03*
X164400000Y-219300000D03*
X170750000Y-216760000D03*
D11*
X166940000Y-214220000D03*
D12*
X172020000Y-214220000D03*
X161860000Y-214220000D03*
D11*
X155040000Y-205980000D03*
X178840000Y-205980000D03*
D13*
X178840000Y-221220000D03*
X155040000Y-221220000D03*
D12*
X168210000Y-209140000D03*
X165670000Y-209140000D03*
D10*
X311600000Y-181300000D03*
X317950000Y-178760000D03*
D11*
X314140000Y-176220000D03*
D12*
X319220000Y-176220000D03*
X309060000Y-176220000D03*
D11*
X302240000Y-183220000D03*
X326040000Y-183220000D03*
D13*
X326040000Y-167980000D03*
X302240000Y-167980000D03*
D12*
X312870000Y-171140000D03*
X315410000Y-171140000D03*
D10*
X328800000Y-169200000D03*
X326260000Y-162850000D03*
D11*
X323720000Y-166660000D03*
D12*
X323720000Y-161580000D03*
X323720000Y-171740000D03*
D11*
X331960000Y-154760000D03*
X331960000Y-178560000D03*
D13*
X316720000Y-178560000D03*
X316720000Y-154760000D03*
D12*
X318640000Y-167930000D03*
X318640000Y-165390000D03*
M02*
