G04 #@! TF.GenerationSoftware,KiCad,Pcbnew,5.1.5-52549c5~84~ubuntu16.04.1*
G04 #@! TF.CreationDate,2020-02-24T16:10:50+06:00*
G04 #@! TF.ProjectId,wasd-kbd80,77617364-2d6b-4626-9438-302e6b696361,rev?*
G04 #@! TF.SameCoordinates,Original*
G04 #@! TF.FileFunction,Profile,NP*
%FSLAX46Y46*%
G04 Gerber Fmt 4.6, Leading zero omitted, Abs format (unit mm)*
G04 Created by KiCad (PCBNEW 5.1.5-52549c5~84~ubuntu16.04.1) date 2020-02-24 16:10:50*
%MOMM*%
%LPD*%
G04 APERTURE LIST*
%ADD10C,0.150000*%
G04 APERTURE END LIST*
D10*
X264300000Y-214200000D02*
G75*
G03X264300000Y-214200000I-1300000J0D01*
G01*
X75500000Y-216000000D02*
G75*
G03X75500000Y-216000000I-1300000J0D01*
G01*
X165800000Y-205500000D02*
G75*
G03X165800000Y-205500000I-1300000J0D01*
G01*
X379800000Y-204500000D02*
G75*
G03X379800000Y-204500000I-1300000J0D01*
G01*
X339200000Y-195400000D02*
G75*
G03X339200000Y-195400000I-1300000J0D01*
G01*
X288000000Y-187500000D02*
G75*
G03X288000000Y-187500000I-1300000J0D01*
G01*
X214800000Y-166500000D02*
G75*
G03X214800000Y-166500000I-1300000J0D01*
G01*
X118300000Y-166500000D02*
G75*
G03X118300000Y-166500000I-1300000J0D01*
G01*
X379800000Y-147500000D02*
G75*
G03X379800000Y-147500000I-1300000J0D01*
G01*
X299000000Y-124500000D02*
G75*
G03X299000000Y-124500000I-1300000J0D01*
G01*
X360800000Y-124500000D02*
G75*
G03X360800000Y-124500000I-1300000J0D01*
G01*
X169400000Y-124500000D02*
G75*
G03X169400000Y-124500000I-1300000J0D01*
G01*
X89300000Y-124500000D02*
G75*
G03X89300000Y-124500000I-1300000J0D01*
G01*
X310100000Y-166500000D02*
G75*
G03X310100000Y-166500000I-2600000J0D01*
G01*
X143100000Y-166500000D02*
G75*
G03X143100000Y-166500000I-2600000J0D01*
G01*
X229250000Y-125000000D02*
G75*
G03X229250000Y-125000000I-5500000J0D01*
G01*
X382000000Y-125000000D02*
G75*
G03X382000000Y-125000000I-5500000J0D01*
G01*
X76500000Y-125000000D02*
G75*
G03X76500000Y-125000000I-5500000J0D01*
G01*
X397500000Y-222000000D02*
G75*
G02X394500000Y-225000000I-3000000J0D01*
G01*
X53000000Y-225000000D02*
G75*
G02X50000000Y-222000000I0J3000000D01*
G01*
X50000000Y-103000000D02*
G75*
G02X53000000Y-100000000I3000000J0D01*
G01*
X394500000Y-100000000D02*
G75*
G02X397500000Y-103000000I0J-3000000D01*
G01*
X394500000Y-225000000D02*
X390000000Y-225000000D01*
X386500000Y-221500000D02*
X390000000Y-221500000D01*
X390000000Y-221500000D02*
X390000000Y-225000000D01*
X386500000Y-225000000D02*
X386500000Y-221500000D01*
X386500000Y-225000000D02*
X280500000Y-225000000D01*
X277000000Y-225000000D02*
X277000000Y-221500000D01*
X280500000Y-221500000D02*
X280500000Y-225000000D01*
X277000000Y-221500000D02*
X280500000Y-221500000D01*
X171000000Y-225000000D02*
X277000000Y-225000000D01*
X171000000Y-221500000D02*
X171000000Y-225000000D01*
X167500000Y-225000000D02*
X167500000Y-221500000D01*
X167500000Y-221500000D02*
X171000000Y-221500000D01*
X61000000Y-225000000D02*
X167500000Y-225000000D01*
X57500000Y-221500000D02*
X61000000Y-221500000D01*
X61000000Y-221500000D02*
X61000000Y-225000000D01*
X57500000Y-225000000D02*
X57500000Y-221500000D01*
X57500000Y-225000000D02*
X53000000Y-225000000D01*
X397500000Y-222000000D02*
X397500000Y-184000000D01*
X394000000Y-180500000D02*
X397500000Y-180500000D01*
X394000000Y-184000000D02*
X394000000Y-180500000D01*
X397500000Y-184000000D02*
X394000000Y-184000000D01*
X397500000Y-144000000D02*
X397500000Y-180500000D01*
X394000000Y-140500000D02*
X397500000Y-140500000D01*
X397500000Y-144000000D02*
X394000000Y-144000000D01*
X394000000Y-144000000D02*
X394000000Y-140500000D01*
X397500000Y-103000000D02*
X397500000Y-140500000D01*
X50000000Y-144000000D02*
X50000000Y-180500000D01*
X53500000Y-184000000D02*
X50000000Y-184000000D01*
X50000000Y-180500000D02*
X53500000Y-180500000D01*
X53500000Y-180500000D02*
X53500000Y-184000000D01*
X53500000Y-144000000D02*
X50000000Y-144000000D01*
X50000000Y-140500000D02*
X53500000Y-140500000D01*
X53500000Y-140500000D02*
X53500000Y-144000000D01*
X50000000Y-222000000D02*
X50000000Y-184000000D01*
X50000000Y-103000000D02*
X50000000Y-140500000D01*
X171000000Y-100000000D02*
X277000000Y-100000000D01*
X171000000Y-103500000D02*
X167500000Y-103500000D01*
X167500000Y-103500000D02*
X167500000Y-100000000D01*
X171000000Y-100000000D02*
X171000000Y-103500000D01*
X61000000Y-100000000D02*
X167500000Y-100000000D01*
X61000000Y-103500000D02*
X57500000Y-103500000D01*
X57500000Y-103500000D02*
X57500000Y-100000000D01*
X61000000Y-100000000D02*
X61000000Y-103500000D01*
X57500000Y-100000000D02*
X53000000Y-100000000D01*
X280500000Y-103500000D02*
X277000000Y-103500000D01*
X277000000Y-103500000D02*
X277000000Y-100000000D01*
X280500000Y-100000000D02*
X280500000Y-103500000D01*
X386500000Y-100000000D02*
X280500000Y-100000000D01*
X386500000Y-103500000D02*
X386500000Y-100000000D01*
X390000000Y-103500000D02*
X386500000Y-103500000D01*
X390000000Y-100000000D02*
X390000000Y-103500000D01*
X394500000Y-100000000D02*
X390000000Y-100000000D01*
M02*
