G04 #@! TF.GenerationSoftware,KiCad,Pcbnew,5.1.5-52549c5~84~ubuntu16.04.1*
G04 #@! TF.CreationDate,2020-02-24T16:10:50+06:00*
G04 #@! TF.ProjectId,wasd-kbd80,77617364-2d6b-4626-9438-302e6b696361,rev?*
G04 #@! TF.SameCoordinates,Original*
G04 #@! TF.FileFunction,Soldermask,Top*
G04 #@! TF.FilePolarity,Negative*
%FSLAX46Y46*%
G04 Gerber Fmt 4.6, Leading zero omitted, Abs format (unit mm)*
G04 Created by KiCad (PCBNEW 5.1.5-52549c5~84~ubuntu16.04.1) date 2020-02-24 16:10:50*
%MOMM*%
%LPD*%
G04 APERTURE LIST*
%ADD10C,2.600000*%
%ADD11C,4.400000*%
%ADD12C,2.100000*%
%ADD13C,3.450000*%
G04 APERTURE END LIST*
D10*
X385800000Y-162300000D03*
X392150000Y-159760000D03*
D11*
X388340000Y-157220000D03*
D12*
X393420000Y-157220000D03*
X383260000Y-157220000D03*
X387070000Y-152140000D03*
X389610000Y-152140000D03*
D10*
X57200000Y-117000000D03*
X63550000Y-114460000D03*
D11*
X59740000Y-111920000D03*
D12*
X64820000Y-111920000D03*
X54660000Y-111920000D03*
X58470000Y-106840000D03*
X61010000Y-106840000D03*
D10*
X76250000Y-117000000D03*
X82600000Y-114460000D03*
D11*
X78790000Y-111920000D03*
D12*
X83870000Y-111920000D03*
X73710000Y-111920000D03*
X77520000Y-106840000D03*
X80060000Y-106840000D03*
D10*
X95300000Y-117000000D03*
X101650000Y-114460000D03*
D11*
X97840000Y-111920000D03*
D12*
X102920000Y-111920000D03*
X92760000Y-111920000D03*
X96570000Y-106840000D03*
X99110000Y-106840000D03*
D10*
X114350000Y-117000000D03*
X120700000Y-114460000D03*
D11*
X116890000Y-111920000D03*
D12*
X121970000Y-111920000D03*
X111810000Y-111920000D03*
X115620000Y-106840000D03*
X118160000Y-106840000D03*
D10*
X133400000Y-117000000D03*
X139750000Y-114460000D03*
D11*
X135940000Y-111920000D03*
D12*
X141020000Y-111920000D03*
X130860000Y-111920000D03*
X134670000Y-106840000D03*
X137210000Y-106840000D03*
X156260000Y-106840000D03*
X153720000Y-106840000D03*
X149910000Y-111920000D03*
X160070000Y-111920000D03*
D11*
X154990000Y-111920000D03*
D10*
X158800000Y-114460000D03*
X152450000Y-117000000D03*
D12*
X184810000Y-106840000D03*
X182270000Y-106840000D03*
X178460000Y-111920000D03*
X188620000Y-111920000D03*
D11*
X183540000Y-111920000D03*
D10*
X187350000Y-114460000D03*
X181000000Y-117000000D03*
X200050000Y-117000000D03*
X206400000Y-114460000D03*
D11*
X202590000Y-111920000D03*
D12*
X207670000Y-111920000D03*
X197510000Y-111920000D03*
X201320000Y-106840000D03*
X203860000Y-106840000D03*
X222910000Y-106840000D03*
X220370000Y-106840000D03*
X216560000Y-111920000D03*
X226720000Y-111920000D03*
D11*
X221640000Y-111920000D03*
D10*
X225450000Y-114460000D03*
X219100000Y-117000000D03*
X238150000Y-117000000D03*
X244500000Y-114460000D03*
D11*
X240690000Y-111920000D03*
D12*
X245770000Y-111920000D03*
X235610000Y-111920000D03*
X239420000Y-106840000D03*
X241960000Y-106840000D03*
D10*
X266750000Y-117000000D03*
X273100000Y-114460000D03*
D11*
X269290000Y-111920000D03*
D12*
X274370000Y-111920000D03*
X264210000Y-111920000D03*
X268020000Y-106840000D03*
X270560000Y-106840000D03*
X289610000Y-106840000D03*
X287070000Y-106840000D03*
X283260000Y-111920000D03*
X293420000Y-111920000D03*
D11*
X288340000Y-111920000D03*
D10*
X292150000Y-114460000D03*
X285800000Y-117000000D03*
X304850000Y-117000000D03*
X311200000Y-114460000D03*
D11*
X307390000Y-111920000D03*
D12*
X312470000Y-111920000D03*
X302310000Y-111920000D03*
X306120000Y-106840000D03*
X308660000Y-106840000D03*
X327710000Y-106840000D03*
X325170000Y-106840000D03*
X321360000Y-111920000D03*
X331520000Y-111920000D03*
D11*
X326440000Y-111920000D03*
D10*
X330250000Y-114460000D03*
X323900000Y-117000000D03*
D12*
X351510000Y-106840000D03*
X348970000Y-106840000D03*
X345160000Y-111920000D03*
X355320000Y-111920000D03*
D11*
X350240000Y-111920000D03*
D10*
X354050000Y-114460000D03*
X347700000Y-117000000D03*
X366750000Y-117000000D03*
X373100000Y-114460000D03*
D11*
X369290000Y-111920000D03*
D12*
X374370000Y-111920000D03*
X364210000Y-111920000D03*
X368020000Y-106840000D03*
X370560000Y-106840000D03*
X389610000Y-106840000D03*
X387070000Y-106840000D03*
X383260000Y-111920000D03*
X393420000Y-111920000D03*
D11*
X388340000Y-111920000D03*
D10*
X392150000Y-114460000D03*
X385800000Y-117000000D03*
D12*
X61010000Y-133140000D03*
X58470000Y-133140000D03*
X54660000Y-138220000D03*
X64820000Y-138220000D03*
D11*
X59740000Y-138220000D03*
D10*
X63550000Y-140760000D03*
X57200000Y-143300000D03*
X76250000Y-143300000D03*
X82600000Y-140760000D03*
D11*
X78790000Y-138220000D03*
D12*
X83870000Y-138220000D03*
X73710000Y-138220000D03*
X77520000Y-133140000D03*
X80060000Y-133140000D03*
X99110000Y-133140000D03*
X96570000Y-133140000D03*
X92760000Y-138220000D03*
X102920000Y-138220000D03*
D11*
X97840000Y-138220000D03*
D10*
X101650000Y-140760000D03*
X95300000Y-143300000D03*
X114350000Y-143300000D03*
X120700000Y-140760000D03*
D11*
X116890000Y-138220000D03*
D12*
X121970000Y-138220000D03*
X111810000Y-138220000D03*
X115620000Y-133140000D03*
X118160000Y-133140000D03*
D10*
X133400000Y-143300000D03*
X139750000Y-140760000D03*
D11*
X135940000Y-138220000D03*
D12*
X141020000Y-138220000D03*
X130860000Y-138220000D03*
X134670000Y-133140000D03*
X137210000Y-133140000D03*
D10*
X152450000Y-143300000D03*
X158800000Y-140760000D03*
D11*
X154990000Y-138220000D03*
D12*
X160070000Y-138220000D03*
X149910000Y-138220000D03*
X153720000Y-133140000D03*
X156260000Y-133140000D03*
D10*
X171500000Y-143300000D03*
X177850000Y-140760000D03*
D11*
X174040000Y-138220000D03*
D12*
X179120000Y-138220000D03*
X168960000Y-138220000D03*
X172770000Y-133140000D03*
X175310000Y-133140000D03*
X194360000Y-133140000D03*
X191820000Y-133140000D03*
X188010000Y-138220000D03*
X198170000Y-138220000D03*
D11*
X193090000Y-138220000D03*
D10*
X196900000Y-140760000D03*
X190550000Y-143300000D03*
X209600000Y-143300000D03*
X215950000Y-140760000D03*
D11*
X212140000Y-138220000D03*
D12*
X217220000Y-138220000D03*
X207060000Y-138220000D03*
X210870000Y-133140000D03*
X213410000Y-133140000D03*
D10*
X228650000Y-143300000D03*
X235000000Y-140760000D03*
D11*
X231190000Y-138220000D03*
D12*
X236270000Y-138220000D03*
X226110000Y-138220000D03*
X229920000Y-133140000D03*
X232460000Y-133140000D03*
D10*
X247700000Y-143300000D03*
X254050000Y-140760000D03*
D11*
X250240000Y-138220000D03*
D12*
X255320000Y-138220000D03*
X245160000Y-138220000D03*
X248970000Y-133140000D03*
X251510000Y-133140000D03*
X270560000Y-133140000D03*
X268020000Y-133140000D03*
X264210000Y-138220000D03*
X274370000Y-138220000D03*
D11*
X269290000Y-138220000D03*
D10*
X273100000Y-140760000D03*
X266750000Y-143300000D03*
D12*
X289610000Y-133140000D03*
X287070000Y-133140000D03*
X283260000Y-138220000D03*
X293420000Y-138220000D03*
D11*
X288340000Y-138220000D03*
D10*
X292150000Y-140760000D03*
X285800000Y-143300000D03*
X304850000Y-143300000D03*
X311200000Y-140760000D03*
D11*
X307390000Y-138220000D03*
D12*
X312470000Y-138220000D03*
X302310000Y-138220000D03*
X306120000Y-133140000D03*
X308660000Y-133140000D03*
D10*
X323900000Y-143300000D03*
X330250000Y-140760000D03*
D11*
X326440000Y-138220000D03*
D12*
X331520000Y-138220000D03*
X321360000Y-138220000D03*
X325170000Y-133140000D03*
X327710000Y-133140000D03*
D10*
X347700000Y-143300000D03*
X354050000Y-140760000D03*
D11*
X350240000Y-138220000D03*
D12*
X355320000Y-138220000D03*
X345160000Y-138220000D03*
X348970000Y-133140000D03*
X351510000Y-133140000D03*
D10*
X366750000Y-143300000D03*
X373100000Y-140760000D03*
D11*
X369290000Y-138220000D03*
D12*
X374370000Y-138220000D03*
X364210000Y-138220000D03*
X368020000Y-133140000D03*
X370560000Y-133140000D03*
X389610000Y-133140000D03*
X387070000Y-133140000D03*
X383260000Y-138220000D03*
X393420000Y-138220000D03*
D11*
X388340000Y-138220000D03*
D10*
X392150000Y-140760000D03*
X385800000Y-143300000D03*
D12*
X89560000Y-152140000D03*
X87020000Y-152140000D03*
X83210000Y-157220000D03*
X93370000Y-157220000D03*
D11*
X88290000Y-157220000D03*
D10*
X92100000Y-159760000D03*
X85750000Y-162300000D03*
D12*
X108610000Y-152140000D03*
X106070000Y-152140000D03*
X102260000Y-157220000D03*
X112420000Y-157220000D03*
D11*
X107340000Y-157220000D03*
D10*
X111150000Y-159760000D03*
X104800000Y-162300000D03*
D12*
X127660000Y-152140000D03*
X125120000Y-152140000D03*
X121310000Y-157220000D03*
X131470000Y-157220000D03*
D11*
X126390000Y-157220000D03*
D10*
X130200000Y-159760000D03*
X123850000Y-162300000D03*
D12*
X146710000Y-152140000D03*
X144170000Y-152140000D03*
X140360000Y-157220000D03*
X150520000Y-157220000D03*
D11*
X145440000Y-157220000D03*
D10*
X149250000Y-159760000D03*
X142900000Y-162300000D03*
D12*
X165760000Y-152140000D03*
X163220000Y-152140000D03*
X159410000Y-157220000D03*
X169570000Y-157220000D03*
D11*
X164490000Y-157220000D03*
D10*
X168300000Y-159760000D03*
X161950000Y-162300000D03*
X181000000Y-162300000D03*
X187350000Y-159760000D03*
D11*
X183540000Y-157220000D03*
D12*
X188620000Y-157220000D03*
X178460000Y-157220000D03*
X182270000Y-152140000D03*
X184810000Y-152140000D03*
X203860000Y-152140000D03*
X201320000Y-152140000D03*
X197510000Y-157220000D03*
X207670000Y-157220000D03*
D11*
X202590000Y-157220000D03*
D10*
X206400000Y-159760000D03*
X200050000Y-162300000D03*
D12*
X222910000Y-152140000D03*
X220370000Y-152140000D03*
X216560000Y-157220000D03*
X226720000Y-157220000D03*
D11*
X221640000Y-157220000D03*
D10*
X225450000Y-159760000D03*
X219100000Y-162300000D03*
D12*
X241960000Y-152140000D03*
X239420000Y-152140000D03*
X235610000Y-157220000D03*
X245770000Y-157220000D03*
D11*
X240690000Y-157220000D03*
D10*
X244500000Y-159760000D03*
X238150000Y-162300000D03*
D12*
X261010000Y-152140000D03*
X258470000Y-152140000D03*
X254660000Y-157220000D03*
X264820000Y-157220000D03*
D11*
X259740000Y-157220000D03*
D10*
X263550000Y-159760000D03*
X257200000Y-162300000D03*
D12*
X280060000Y-152140000D03*
X277520000Y-152140000D03*
X273710000Y-157220000D03*
X283870000Y-157220000D03*
D11*
X278790000Y-157220000D03*
D10*
X282600000Y-159760000D03*
X276250000Y-162300000D03*
D12*
X299110000Y-152140000D03*
X296570000Y-152140000D03*
X292760000Y-157220000D03*
X302920000Y-157220000D03*
D11*
X297840000Y-157220000D03*
D10*
X301650000Y-159760000D03*
X295300000Y-162300000D03*
X347700000Y-162300000D03*
X354050000Y-159760000D03*
D11*
X350240000Y-157220000D03*
D12*
X355320000Y-157220000D03*
X345160000Y-157220000D03*
X348970000Y-152140000D03*
X351510000Y-152140000D03*
D10*
X366750000Y-162300000D03*
X373100000Y-159760000D03*
D11*
X369290000Y-157220000D03*
D12*
X374370000Y-157220000D03*
X364210000Y-157220000D03*
X368020000Y-152140000D03*
X370560000Y-152140000D03*
D10*
X90500000Y-181300000D03*
X96850000Y-178760000D03*
D11*
X93040000Y-176220000D03*
D12*
X98120000Y-176220000D03*
X87960000Y-176220000D03*
X91770000Y-171140000D03*
X94310000Y-171140000D03*
D10*
X109550000Y-181300000D03*
X115900000Y-178760000D03*
D11*
X112090000Y-176220000D03*
D12*
X117170000Y-176220000D03*
X107010000Y-176220000D03*
X110820000Y-171140000D03*
X113360000Y-171140000D03*
D10*
X128600000Y-181300000D03*
X134950000Y-178760000D03*
D11*
X131140000Y-176220000D03*
D12*
X136220000Y-176220000D03*
X126060000Y-176220000D03*
X129870000Y-171140000D03*
X132410000Y-171140000D03*
D10*
X147650000Y-181300000D03*
X154000000Y-178760000D03*
D11*
X150190000Y-176220000D03*
D12*
X155270000Y-176220000D03*
X145110000Y-176220000D03*
X148920000Y-171140000D03*
X151460000Y-171140000D03*
D10*
X166700000Y-181300000D03*
X173050000Y-178760000D03*
D11*
X169240000Y-176220000D03*
D12*
X174320000Y-176220000D03*
X164160000Y-176220000D03*
X167970000Y-171140000D03*
X170510000Y-171140000D03*
D10*
X185750000Y-181300000D03*
X192100000Y-178760000D03*
D11*
X188290000Y-176220000D03*
D12*
X193370000Y-176220000D03*
X183210000Y-176220000D03*
X187020000Y-171140000D03*
X189560000Y-171140000D03*
D10*
X204800000Y-181300000D03*
X211150000Y-178760000D03*
D11*
X207340000Y-176220000D03*
D12*
X212420000Y-176220000D03*
X202260000Y-176220000D03*
X206070000Y-171140000D03*
X208610000Y-171140000D03*
D10*
X223850000Y-181300000D03*
X230200000Y-178760000D03*
D11*
X226390000Y-176220000D03*
D12*
X231470000Y-176220000D03*
X221310000Y-176220000D03*
X225120000Y-171140000D03*
X227660000Y-171140000D03*
D10*
X242900000Y-181300000D03*
X249250000Y-178760000D03*
D11*
X245440000Y-176220000D03*
D12*
X250520000Y-176220000D03*
X240360000Y-176220000D03*
X244170000Y-171140000D03*
X246710000Y-171140000D03*
X265760000Y-171140000D03*
X263220000Y-171140000D03*
X259410000Y-176220000D03*
X269570000Y-176220000D03*
D11*
X264490000Y-176220000D03*
D10*
X268300000Y-178760000D03*
X261950000Y-181300000D03*
D12*
X284810000Y-171140000D03*
X282270000Y-171140000D03*
X278460000Y-176220000D03*
X288620000Y-176220000D03*
D11*
X283540000Y-176220000D03*
D10*
X287350000Y-178760000D03*
X281000000Y-181300000D03*
D12*
X303860000Y-171140000D03*
X301320000Y-171140000D03*
X297510000Y-176220000D03*
X307670000Y-176220000D03*
D11*
X302590000Y-176220000D03*
D10*
X306400000Y-178760000D03*
X300050000Y-181300000D03*
D12*
X61010000Y-190140000D03*
X58470000Y-190140000D03*
X54660000Y-195220000D03*
X64820000Y-195220000D03*
D11*
X59740000Y-195220000D03*
D10*
X63550000Y-197760000D03*
X57200000Y-200300000D03*
D12*
X84860000Y-190140000D03*
X82320000Y-190140000D03*
X78510000Y-195220000D03*
X88670000Y-195220000D03*
D11*
X83590000Y-195220000D03*
D10*
X87400000Y-197760000D03*
X81050000Y-200300000D03*
D12*
X103910000Y-190140000D03*
X101370000Y-190140000D03*
X97560000Y-195220000D03*
X107720000Y-195220000D03*
D11*
X102640000Y-195220000D03*
D10*
X106450000Y-197760000D03*
X100100000Y-200300000D03*
D12*
X122960000Y-190140000D03*
X120420000Y-190140000D03*
X116610000Y-195220000D03*
X126770000Y-195220000D03*
D11*
X121690000Y-195220000D03*
D10*
X125500000Y-197760000D03*
X119150000Y-200300000D03*
D12*
X142010000Y-190140000D03*
X139470000Y-190140000D03*
X135660000Y-195220000D03*
X145820000Y-195220000D03*
D11*
X140740000Y-195220000D03*
D10*
X144550000Y-197760000D03*
X138200000Y-200300000D03*
D12*
X161060000Y-190140000D03*
X158520000Y-190140000D03*
X154710000Y-195220000D03*
X164870000Y-195220000D03*
D11*
X159790000Y-195220000D03*
D10*
X163600000Y-197760000D03*
X157250000Y-200300000D03*
D12*
X180110000Y-190140000D03*
X177570000Y-190140000D03*
X173760000Y-195220000D03*
X183920000Y-195220000D03*
D11*
X178840000Y-195220000D03*
D10*
X182650000Y-197760000D03*
X176300000Y-200300000D03*
D12*
X199160000Y-190140000D03*
X196620000Y-190140000D03*
X192810000Y-195220000D03*
X202970000Y-195220000D03*
D11*
X197890000Y-195220000D03*
D10*
X201700000Y-197760000D03*
X195350000Y-200300000D03*
D12*
X218210000Y-190140000D03*
X215670000Y-190140000D03*
X211860000Y-195220000D03*
X222020000Y-195220000D03*
D11*
X216940000Y-195220000D03*
D10*
X220750000Y-197760000D03*
X214400000Y-200300000D03*
D12*
X237260000Y-190140000D03*
X234720000Y-190140000D03*
X230910000Y-195220000D03*
X241070000Y-195220000D03*
D11*
X235990000Y-195220000D03*
D10*
X239800000Y-197760000D03*
X233450000Y-200300000D03*
D12*
X256310000Y-190140000D03*
X253770000Y-190140000D03*
X249960000Y-195220000D03*
X260120000Y-195220000D03*
D11*
X255040000Y-195220000D03*
D10*
X258850000Y-197760000D03*
X252500000Y-200300000D03*
D12*
X275360000Y-190140000D03*
X272820000Y-190140000D03*
X269010000Y-195220000D03*
X279170000Y-195220000D03*
D11*
X274090000Y-195220000D03*
D10*
X277900000Y-197760000D03*
X271550000Y-200300000D03*
X290600000Y-200300000D03*
X296950000Y-197760000D03*
D11*
X293140000Y-195220000D03*
D12*
X298220000Y-195220000D03*
X288060000Y-195220000D03*
X291870000Y-190140000D03*
X294410000Y-190140000D03*
X351510000Y-190140000D03*
X348970000Y-190140000D03*
X345160000Y-195220000D03*
X355320000Y-195220000D03*
D11*
X350240000Y-195220000D03*
D10*
X354050000Y-197760000D03*
X347700000Y-200300000D03*
D12*
X370560000Y-190140000D03*
X368020000Y-190140000D03*
X364210000Y-195220000D03*
X374370000Y-195220000D03*
D11*
X369290000Y-195220000D03*
D10*
X373100000Y-197760000D03*
X366750000Y-200300000D03*
X385800000Y-200300000D03*
X392150000Y-197760000D03*
D11*
X388340000Y-195220000D03*
D12*
X393420000Y-195220000D03*
X383260000Y-195220000D03*
X387070000Y-190140000D03*
X389610000Y-190140000D03*
D10*
X128600000Y-219300000D03*
X134950000Y-216760000D03*
D11*
X131140000Y-214220000D03*
D12*
X136220000Y-214220000D03*
X126060000Y-214220000D03*
X129870000Y-209140000D03*
X132410000Y-209140000D03*
D10*
X314400000Y-143300000D03*
X320750000Y-140760000D03*
D11*
X316940000Y-138220000D03*
D12*
X322020000Y-138220000D03*
X311860000Y-138220000D03*
D11*
X305040000Y-145220000D03*
X328840000Y-145220000D03*
D13*
X328840000Y-129980000D03*
X305040000Y-129980000D03*
D12*
X315670000Y-133140000D03*
X318210000Y-133140000D03*
D10*
X61900000Y-162300000D03*
X68250000Y-159760000D03*
D11*
X64440000Y-157220000D03*
D12*
X69520000Y-157220000D03*
X59360000Y-157220000D03*
X63170000Y-152140000D03*
X65710000Y-152140000D03*
D10*
X64350000Y-181300000D03*
X70700000Y-178760000D03*
D11*
X66890000Y-176220000D03*
D12*
X71970000Y-176220000D03*
X61810000Y-176220000D03*
X65620000Y-171140000D03*
X68160000Y-171140000D03*
D10*
X319150000Y-162300000D03*
X325500000Y-159760000D03*
D11*
X321690000Y-157220000D03*
D12*
X326770000Y-157220000D03*
X316610000Y-157220000D03*
X320420000Y-152140000D03*
X322960000Y-152140000D03*
D10*
X69100000Y-200300000D03*
X75450000Y-197760000D03*
D11*
X71640000Y-195220000D03*
D12*
X76720000Y-195220000D03*
X66560000Y-195220000D03*
D11*
X59740000Y-202220000D03*
X83540000Y-202220000D03*
D13*
X83540000Y-186980000D03*
X59740000Y-186980000D03*
D12*
X70370000Y-190140000D03*
X72910000Y-190140000D03*
D10*
X307300000Y-200300000D03*
X313650000Y-197760000D03*
D11*
X309840000Y-195220000D03*
D12*
X314920000Y-195220000D03*
X304760000Y-195220000D03*
D11*
X297940000Y-202220000D03*
X321740000Y-202220000D03*
D13*
X321740000Y-186980000D03*
X297940000Y-186980000D03*
D12*
X311110000Y-190140000D03*
X308570000Y-190140000D03*
D10*
X316800000Y-200300000D03*
X323150000Y-197760000D03*
D11*
X319340000Y-195220000D03*
D12*
X324420000Y-195220000D03*
X314260000Y-195220000D03*
X318070000Y-190140000D03*
X320610000Y-190140000D03*
D10*
X366750000Y-219300000D03*
X373100000Y-216760000D03*
D11*
X369290000Y-214220000D03*
D12*
X374370000Y-214220000D03*
X364210000Y-214220000D03*
X368020000Y-209140000D03*
X370560000Y-209140000D03*
D10*
X385800000Y-219300000D03*
X392150000Y-216760000D03*
D11*
X388340000Y-214220000D03*
D12*
X393420000Y-214220000D03*
X383260000Y-214220000D03*
X387070000Y-209140000D03*
X389610000Y-209140000D03*
X60870000Y-209140000D03*
X63410000Y-209140000D03*
X57060000Y-214220000D03*
X67220000Y-214220000D03*
D11*
X62140000Y-214220000D03*
D10*
X65950000Y-216760000D03*
X59600000Y-219300000D03*
X83400000Y-219300000D03*
X89750000Y-216760000D03*
D11*
X85940000Y-214220000D03*
D12*
X91020000Y-214220000D03*
X80860000Y-214220000D03*
X87210000Y-209140000D03*
X84670000Y-209140000D03*
D10*
X107200000Y-219300000D03*
X113550000Y-216760000D03*
D11*
X109740000Y-214220000D03*
D12*
X114820000Y-214220000D03*
X104660000Y-214220000D03*
X111010000Y-209140000D03*
X108470000Y-209140000D03*
D10*
X178600000Y-219300000D03*
X184950000Y-216760000D03*
D11*
X181140000Y-214220000D03*
D12*
X186220000Y-214220000D03*
X176060000Y-214220000D03*
D11*
X131140000Y-205980000D03*
X231140000Y-205980000D03*
D13*
X231140000Y-221220000D03*
X131140000Y-221220000D03*
D12*
X179870000Y-209140000D03*
X182410000Y-209140000D03*
D10*
X250100000Y-219300000D03*
X256450000Y-216760000D03*
D11*
X252640000Y-214220000D03*
D12*
X257720000Y-214220000D03*
X247560000Y-214220000D03*
X253910000Y-209140000D03*
X251370000Y-209140000D03*
X275170000Y-209140000D03*
X277710000Y-209140000D03*
X271360000Y-214220000D03*
X281520000Y-214220000D03*
D11*
X276440000Y-214220000D03*
D10*
X280250000Y-216760000D03*
X273900000Y-219300000D03*
X297700000Y-219300000D03*
X304050000Y-216760000D03*
D11*
X300240000Y-214220000D03*
D12*
X305320000Y-214220000D03*
X295160000Y-214220000D03*
X301510000Y-209140000D03*
X298970000Y-209140000D03*
X322820000Y-209140000D03*
X325360000Y-209140000D03*
X319010000Y-214220000D03*
X329170000Y-214220000D03*
D11*
X324090000Y-214220000D03*
D10*
X327900000Y-216760000D03*
X321550000Y-219300000D03*
X347700000Y-219300000D03*
X354050000Y-216760000D03*
D11*
X350240000Y-214220000D03*
D12*
X355320000Y-214220000D03*
X345160000Y-214220000D03*
X348970000Y-209140000D03*
X351510000Y-209140000D03*
D10*
X202500000Y-219300000D03*
X208850000Y-216760000D03*
D11*
X205040000Y-214220000D03*
D12*
X210120000Y-214220000D03*
X199960000Y-214220000D03*
X206310000Y-209140000D03*
X203770000Y-209140000D03*
X227570000Y-209140000D03*
X230110000Y-209140000D03*
X223760000Y-214220000D03*
X233920000Y-214220000D03*
D11*
X228840000Y-214220000D03*
D10*
X232650000Y-216760000D03*
X226300000Y-219300000D03*
X164350000Y-219300000D03*
X170700000Y-216760000D03*
D11*
X166890000Y-214220000D03*
D12*
X171970000Y-214220000D03*
X161810000Y-214220000D03*
D11*
X154990000Y-205980000D03*
X178790000Y-205980000D03*
D13*
X178790000Y-221220000D03*
X154990000Y-221220000D03*
D12*
X168160000Y-209140000D03*
X165620000Y-209140000D03*
D10*
X311900000Y-181300000D03*
X318250000Y-178760000D03*
D11*
X314440000Y-176220000D03*
D12*
X319520000Y-176220000D03*
X309360000Y-176220000D03*
D11*
X302540000Y-183220000D03*
X326340000Y-183220000D03*
D13*
X326340000Y-167980000D03*
X302540000Y-167980000D03*
D12*
X313170000Y-171140000D03*
X315710000Y-171140000D03*
D10*
X329150000Y-169300000D03*
X326610000Y-162950000D03*
D11*
X324070000Y-166760000D03*
D12*
X324070000Y-161680000D03*
X324070000Y-171840000D03*
D11*
X332310000Y-154860000D03*
X332310000Y-178660000D03*
D13*
X317070000Y-178660000D03*
X317070000Y-154860000D03*
D12*
X318990000Y-168030000D03*
X318990000Y-165490000D03*
M02*
