M48
; DRILL file {KiCad 5.1.5-52549c5~84~ubuntu16.04.1} date Sun 22 Dec 2019 20:02:05 +06
; FORMAT={3:3/ absolute / metric / suppress leading zeros}
; #@! TF.CreationDate,2019-12-22T20:02:05+06:00
; #@! TF.GenerationSoftware,Kicad,Pcbnew,5.1.5-52549c5~84~ubuntu16.04.1
FMAT,2
METRIC,TZ
T1C0.400
T2C1.000
T3C1.500
T4C1.700
T5C3.050
T6C4.000
%
G90
G05
T1
X53900Y-133300
X54200Y-190300
X54300Y-107000
X56200Y-209300
X58300Y-152300
X60900Y-171300
X67700Y-108900
X69300Y-210900
X72700Y-133300
X73200Y-107000
X74500Y-132000
X77600Y-180575
X77600Y-182025
X78200Y-190300
X80100Y-209300
X80400Y-178900
X82200Y-152300
X83500Y-153800
X83800Y-178900
X86000Y-142125
X86000Y-144025
X87000Y-171300
X87500Y-205400
X88500Y-169900
X89400Y-190600
X89500Y-116275
X89500Y-117725
X90400Y-206400
X91900Y-133300
X92200Y-107000
X92800Y-209000
X93500Y-131400
X94500Y-160900
X95100Y-154300
X97200Y-190300
X97400Y-160200
X97900Y-185700
X99600Y-173300
X99700Y-167675
X100700Y-164300
X101200Y-152300
X102000Y-127600
X102000Y-133800
X102500Y-151100
X104200Y-209300
X104600Y-109000
X105600Y-116000
X105600Y-118200
X105600Y-140700
X105900Y-171300
X106700Y-116000
X106700Y-118200
X107500Y-169900
X107800Y-116000
X107800Y-118200
X109600Y-147800
X110500Y-133300
X110500Y-192300
X111200Y-107000
X112100Y-142125
X112100Y-144025
X112100Y-148875
X112100Y-150325
X113187Y-147313
X114100Y-154300
X115500Y-205600
X116200Y-190300
X116700Y-145800
X120000Y-152300
X123600Y-135300
X124900Y-109000
X125100Y-209300
X125400Y-171300
X125500Y-221700
X125600Y-165600
X128700Y-192100
X129400Y-133300
X129400Y-144025
X129400Y-146400
X129900Y-107000
X135200Y-190300
X135500Y-221600
X137600Y-173300
X137700Y-211300
X138000Y-150325
X138300Y-119500
X139000Y-152300
X141500Y-124100
X141500Y-133900
X142700Y-109000
X144400Y-171300
X148300Y-133300
X148300Y-192300
X148800Y-107000
X150500Y-152200
X151500Y-221700
X152500Y-150800
X153900Y-190300
X155500Y-169200
X156000Y-152300
X156000Y-154900
X156200Y-182700
X157000Y-152300
X157000Y-154900
X158100Y-152300
X158600Y-208700
X158700Y-212700
X159000Y-184700
X159400Y-182700
X159800Y-168400
X160500Y-104300
X161300Y-201300
X161400Y-126300
X161400Y-131100
X161700Y-119500
X161800Y-136300
X162800Y-126200
X163300Y-171300
X164200Y-149600
X164600Y-119200
X165200Y-149600
X166200Y-149600
X166600Y-192300
X167000Y-144100
X167400Y-133300
X168700Y-194300
X168800Y-115900
X168800Y-118300
X169200Y-110600
X169800Y-144100
X169900Y-121400
X170300Y-115500
X170300Y-119200
X170800Y-154300
X171600Y-107700
X172800Y-147100
X173000Y-180800
X173000Y-190300
X173000Y-199000
X173100Y-121425
X173200Y-188800
X174200Y-141800
X174263Y-156737
X174300Y-209300
X175000Y-155800
X175200Y-130700
X175220Y-169194
X176800Y-184525
X177100Y-107000
X177200Y-152300
X177600Y-130900
X177600Y-131900
X177600Y-132900
X178000Y-144025
X178600Y-124100
X178600Y-142575
X178600Y-180100
X179500Y-133800
X180178Y-106145
X180188Y-143138
X180400Y-177800
X181300Y-130800
X181300Y-131800
X181300Y-132800
X181400Y-179200
X182300Y-171300
X182700Y-136300
X182700Y-137300
X182700Y-138300
X182800Y-128700
X183600Y-118800
X183800Y-126375
X184600Y-131200
X185600Y-118000
X185700Y-136200
X185700Y-137200
X185700Y-138200
X186600Y-120300
X186600Y-126000
X187000Y-133300
X187600Y-124700
X188700Y-118000
X189100Y-198100
X189600Y-127100
X189600Y-154300
X190100Y-106400
X190100Y-115900
X190200Y-156000
X190200Y-160100
X190200Y-167100
X190200Y-183975
X190500Y-140300
X190600Y-150900
X191600Y-124000
X191600Y-127975
X191800Y-190300
X192500Y-141000
X192500Y-152100
X192600Y-117900
X192800Y-109000
X192900Y-112700
X193900Y-110600
X194300Y-153000
X194325Y-117900
X194500Y-116275
X194600Y-120300
X194600Y-160800
X194600Y-173300
X195025Y-149900
X195600Y-119225
X195800Y-107000
X195800Y-168400
X195900Y-110600
X196000Y-152300
X196200Y-144025
X196600Y-124000
X197400Y-114600
X197400Y-116300
X197500Y-125400
X197500Y-153400
X197600Y-160800
X197600Y-164800
X198200Y-113700
X198300Y-142000
X198500Y-134100
X198600Y-120600
X199200Y-209300
X199400Y-153575
X199600Y-120500
X199600Y-146000
X199700Y-131000
X199700Y-168400
X199700Y-184700
X200125Y-142200
X200200Y-159600
X200513Y-135087
X200700Y-144025
X200800Y-108900
X200875Y-120300
X201000Y-181000
X201400Y-146100
X201400Y-171300
X201700Y-119500
X202600Y-135800
X203600Y-115500
X203600Y-120400
X203900Y-147600
X204075Y-137400
X204400Y-190100
X204412Y-154688
X205200Y-142500
X205200Y-186200
X205213Y-138587
X205900Y-133300
X206100Y-148900
X207100Y-140100
X207400Y-141800
X207400Y-153100
X207500Y-105500
X207600Y-120400
X208600Y-158700
X208700Y-164071
X208700Y-161575
X209600Y-109000
X209600Y-131300
X210600Y-166600
X211000Y-105600
X211000Y-190300
X211400Y-205100
X211800Y-211300
X212013Y-168587
X212600Y-109000
X214400Y-159200
X214700Y-130575
X215000Y-107000
X215200Y-152300
X215600Y-122200
X215800Y-130100
X215900Y-163900
X217100Y-133900
X218600Y-166200
X220000Y-144800
X220300Y-171300
X220898Y-161072
X221300Y-181300
X221400Y-207100
X221400Y-209400
X221900Y-163100
X223200Y-209300
X225000Y-133300
X226900Y-130900
X227600Y-107100
X228000Y-119700
X228300Y-106400
X229000Y-108700
X229100Y-105700
X229800Y-108000
X230000Y-190300
X230600Y-107300
X230600Y-130900
X231100Y-152300
X231100Y-155900
X231100Y-163600
X231100Y-167100
X231500Y-172200
X232200Y-163500
X233900Y-107000
X234000Y-152300
X235700Y-211300
X239400Y-171300
X241500Y-203925
X241900Y-140400
X242600Y-192300
X243900Y-133300
X244300Y-150600
X246200Y-209300
X246400Y-152800
X246800Y-119200
X247500Y-163600
X247600Y-109000
X248400Y-168700
X248900Y-190300
X249400Y-163600
X250500Y-168700
X251700Y-179800
X251800Y-163600
X252400Y-142100
X252800Y-152300
X253700Y-163400
X254600Y-150700
X254600Y-185700
X254900Y-142200
X255200Y-120900
X255500Y-134400
X258000Y-145800
X258197Y-192297
X258300Y-171300
X259700Y-211300
X260000Y-214300
X260900Y-148400
X262700Y-133300
X263000Y-107000
X264500Y-153200
X264500Y-208000
X267800Y-190300
X270100Y-209300
X270600Y-173300
X271100Y-166200
X272100Y-152300
X274375Y-119925
X274500Y-134200
X275400Y-166200
X275600Y-103300
X275700Y-109000
X277300Y-171300
X278100Y-211300
X280700Y-192300
X281700Y-133300
X281913Y-167188
X282000Y-107000
X282000Y-122700
X282600Y-211300
X283500Y-152700
X286900Y-190300
X287800Y-153900
X290200Y-180575
X290600Y-173300
X291200Y-152300
X291400Y-178700
X291400Y-180575
X292900Y-172500
X292900Y-178975
X292900Y-180575
X292900Y-182025
X293400Y-136500
X294100Y-209300
X294200Y-168600
X294800Y-109000
X296100Y-180575
X297500Y-172500
X297700Y-142575
X299300Y-135300
X299600Y-192300
X300800Y-133300
X301000Y-107000
X301000Y-144200
X301400Y-129600
X302200Y-141200
X302500Y-153200
X304713Y-160213
X306200Y-152400
X306700Y-211300
X307500Y-208000
X307763Y-141237
X308000Y-157100
X308400Y-171300
X309200Y-144200
X310700Y-154800
X313300Y-190300
X313400Y-212200
X314000Y-109000
X314400Y-165000
X314700Y-182100
X315000Y-152300
X317300Y-209300
X317600Y-144600
X319300Y-135300
X319900Y-107000
X320200Y-133300
X321100Y-148100
X321400Y-173300
X321500Y-126400
X323400Y-130600
X325700Y-192300
X326500Y-152300
X326600Y-127200
X327000Y-191300
X327200Y-175300
X327499Y-125276
X328400Y-174400
X329000Y-202800
X330600Y-211300
X332800Y-109000
X332900Y-141000
X333000Y-135300
X334100Y-198500
X334100Y-201600
X334700Y-132300
X335400Y-131700
X335600Y-116275
X335600Y-118200
X336100Y-131100
X337000Y-115550
X337000Y-117725
X337000Y-127405
X337000Y-128900
X337400Y-105525
X337400Y-106800
X339000Y-136500
X339600Y-135900
X340300Y-135300
X341400Y-147100
X342900Y-133300
X343000Y-107000
X343100Y-152300
X343100Y-209300
X343200Y-190300
X345100Y-204500
X345100Y-207325
X345300Y-128855
X346000Y-149600
X347200Y-127100
X354500Y-155500
X354500Y-193400
X355200Y-140300
X355200Y-151400
X355600Y-211300
X356400Y-135300
X357700Y-115500
X359000Y-196500
X359000Y-202100
X360700Y-139800
X361900Y-107000
X362000Y-133300
X362000Y-152300
X362200Y-209300
X362300Y-190300
X362500Y-115900
X362500Y-118400
X373500Y-155500
X373500Y-193400
X374700Y-135300
X374700Y-211300
X377300Y-193400
X378100Y-194200
X378800Y-191900
X378900Y-195000
X379600Y-192700
X380500Y-193600
X380800Y-107000
X381000Y-133300
X381200Y-152300
X381200Y-190300
X381200Y-209300
X393700Y-192300
X393700Y-211300
X394000Y-135300
T2
X274970Y-209140
X277510Y-209140
X61170Y-209140
X63710Y-209140
X220270Y-106840
X222810Y-106840
X70670Y-190140
X73210Y-190140
X227570Y-209140
X230110Y-209140
X129870Y-209140
X132410Y-209140
X106270Y-152140
X108810Y-152140
X84870Y-209140
X87410Y-209140
X315270Y-133140
X317810Y-133140
X305770Y-133140
X308310Y-133140
X367170Y-209140
X369710Y-209140
X129970Y-171140
X132510Y-171140
X319970Y-152140
X322510Y-152140
X210770Y-133140
X213310Y-133140
X386170Y-190140
X388710Y-190140
X153770Y-133140
X156310Y-133140
X108570Y-209140
X111110Y-209140
X348170Y-152140
X350710Y-152140
X291570Y-190140
X294110Y-190140
X196570Y-190140
X199110Y-190140
X317670Y-190140
X320210Y-190140
X63570Y-152140
X66110Y-152140
X386170Y-133140
X388710Y-133140
X300970Y-171140
X303510Y-171140
X324770Y-106840
X327310Y-106840
X348170Y-209140
X350710Y-209140
X286770Y-106840
X289310Y-106840
X272570Y-190140
X275110Y-190140
X348170Y-106840
X350710Y-106840
X110970Y-171140
X113510Y-171140
X312870Y-171140
X315410Y-171140
X91970Y-171140
X94510Y-171140
X120570Y-190140
X123110Y-190140
X191770Y-133140
X194310Y-133140
X201270Y-152140
X203810Y-152140
X179870Y-209140
X182410Y-209140
X58770Y-133140
X61310Y-133140
X134770Y-106840
X137310Y-106840
X248770Y-133140
X251310Y-133140
X224970Y-171140
X227510Y-171140
X243970Y-171140
X246510Y-171140
X386170Y-152140
X388710Y-152140
X203870Y-209140
X206410Y-209140
X158570Y-190140
X161110Y-190140
X182270Y-106840
X184810Y-106840
X322370Y-209140
X324910Y-209140
X286770Y-133140
X289310Y-133140
X308170Y-190140
X310710Y-190140
X267770Y-133140
X270310Y-133140
X318640Y-165390
X318640Y-167930
X367170Y-190140
X369710Y-190140
X229770Y-133140
X232310Y-133140
X101570Y-190140
X104110Y-190140
X205970Y-171140
X208510Y-171140
X239270Y-152140
X241810Y-152140
X153770Y-106840
X156310Y-106840
X139570Y-190140
X142110Y-190140
X296270Y-152140
X298810Y-152140
X148970Y-171140
X151510Y-171140
X96770Y-106840
X99310Y-106840
X267770Y-106840
X270310Y-106840
X96770Y-133140
X99310Y-133140
X58770Y-106840
X61310Y-106840
X234570Y-190140
X237110Y-190140
X262970Y-171140
X265510Y-171140
X82570Y-190140
X85110Y-190140
X77770Y-106840
X80310Y-106840
X144270Y-152140
X146810Y-152140
X201270Y-106840
X203810Y-106840
X115770Y-106840
X118310Y-106840
X65870Y-171140
X68410Y-171140
X182270Y-152140
X184810Y-152140
X58770Y-190140
X61310Y-190140
X165670Y-209140
X168210Y-209140
X277270Y-152140
X279810Y-152140
X220270Y-152140
X222810Y-152140
X239270Y-106840
X241810Y-106840
X305770Y-106840
X308310Y-106840
X386170Y-106840
X388710Y-106840
X134770Y-133140
X137310Y-133140
X167970Y-171140
X170510Y-171140
X324770Y-133140
X327310Y-133140
X115770Y-133140
X118310Y-133140
X348170Y-190140
X350710Y-190140
X258270Y-152140
X260810Y-152140
X348170Y-133140
X350710Y-133140
X253570Y-190140
X256110Y-190140
X367170Y-106840
X369710Y-106840
X298670Y-209140
X301210Y-209140
X251270Y-209140
X253810Y-209140
X215570Y-190140
X218110Y-190140
X77770Y-133140
X80310Y-133140
X177570Y-190140
X180110Y-190140
X87270Y-152140
X89810Y-152140
X186970Y-171140
X189510Y-171140
X163270Y-152140
X165810Y-152140
X125270Y-152140
X127810Y-152140
X367170Y-133140
X369710Y-133140
X172770Y-133140
X175310Y-133140
X386170Y-209140
X388710Y-209140
X367170Y-152140
X369710Y-152140
X281970Y-171140
X284510Y-171140
T3
X304500Y-143300
X310850Y-140760
X365900Y-219300
X372250Y-216760
X128700Y-181300
X135050Y-178760
X318700Y-162300
X325050Y-159760
X209500Y-143300
X215850Y-140760
X384900Y-200300
X391250Y-197760
X152500Y-143300
X158850Y-140760
X107300Y-219300
X113650Y-216760
X346900Y-162300
X353250Y-159760
X290300Y-200300
X296650Y-197760
X195300Y-200300
X201650Y-197760
X316400Y-200300
X322750Y-197760
X62300Y-162300
X68650Y-159760
X384900Y-143300
X391250Y-140760
X299700Y-181300
X306050Y-178760
X323500Y-117000
X329850Y-114460
X346900Y-219300
X353250Y-216760
X285500Y-117000
X291850Y-114460
X271300Y-200300
X277650Y-197760
X346900Y-117000
X353250Y-114460
X109700Y-181300
X116050Y-178760
X311600Y-181300
X317950Y-178760
X90700Y-181300
X97050Y-178760
X119300Y-200300
X125650Y-197760
X190500Y-143300
X196850Y-140760
X200000Y-162300
X206350Y-159760
X178600Y-219300
X184950Y-216760
X57500Y-143300
X63850Y-140760
X133500Y-117000
X139850Y-114460
X247500Y-143300
X253850Y-140760
X223700Y-181300
X230050Y-178760
X242700Y-181300
X249050Y-178760
X384900Y-162300
X391250Y-159760
X202600Y-219300
X208950Y-216760
X157300Y-200300
X163650Y-197760
X181000Y-117000
X187350Y-114460
X321100Y-219300
X327450Y-216760
X285500Y-143300
X291850Y-140760
X306900Y-200300
X313250Y-197760
X266500Y-143300
X272850Y-140760
X326260Y-162850
X328800Y-169200
X365900Y-200300
X372250Y-197760
X228500Y-143300
X234850Y-140760
X100300Y-200300
X106650Y-197760
X204700Y-181300
X211050Y-178760
X238000Y-162300
X244350Y-159760
X152500Y-117000
X158850Y-114460
X138300Y-200300
X144650Y-197760
X295000Y-162300
X301350Y-159760
X147700Y-181300
X154050Y-178760
X95500Y-117000
X101850Y-114460
X266500Y-117000
X272850Y-114460
X95500Y-143300
X101850Y-140760
X57500Y-117000
X63850Y-114460
X233300Y-200300
X239650Y-197760
X261700Y-181300
X268050Y-178760
X81300Y-200300
X87650Y-197760
X76500Y-117000
X82850Y-114460
X143000Y-162300
X149350Y-159760
X200000Y-117000
X206350Y-114460
X114500Y-117000
X120850Y-114460
X64600Y-181300
X70950Y-178760
X181000Y-162300
X187350Y-159760
X57500Y-200300
X63850Y-197760
X164400Y-219300
X170750Y-216760
X276000Y-162300
X282350Y-159760
X219000Y-162300
X225350Y-159760
X238000Y-117000
X244350Y-114460
X304500Y-117000
X310850Y-114460
X384900Y-117000
X391250Y-114460
X133500Y-143300
X139850Y-140760
X166700Y-181300
X173050Y-178760
X323500Y-143300
X329850Y-140760
X114500Y-143300
X120850Y-140760
X346900Y-200300
X353250Y-197760
X257000Y-162300
X263350Y-159760
X346900Y-143300
X353250Y-140760
X252300Y-200300
X258650Y-197760
X365900Y-117000
X372250Y-114460
X297400Y-219300
X303750Y-216760
X250000Y-219300
X256350Y-216760
X214300Y-200300
X220650Y-197760
X76500Y-143300
X82850Y-140760
X176300Y-200300
X182650Y-197760
X86000Y-162300
X92350Y-159760
X185700Y-181300
X192050Y-178760
X162000Y-162300
X168350Y-159760
X124000Y-162300
X130350Y-159760
X365900Y-143300
X372250Y-140760
X171500Y-143300
X177850Y-140760
X384900Y-219300
X391250Y-216760
X365900Y-162300
X372250Y-159760
X280700Y-181300
X287050Y-178760
X273700Y-219300
X280050Y-216760
X59900Y-219300
X66250Y-216760
X219000Y-117000
X225350Y-114460
X69400Y-200300
X75750Y-197760
X226300Y-219300
X232650Y-216760
X128600Y-219300
X134950Y-216760
X105000Y-162300
X111350Y-159760
X83600Y-219300
X89950Y-216760
X314000Y-143300
X320350Y-140760
T4
X83460Y-157220
X93620Y-157220
X183160Y-176220
X193320Y-176220
X159460Y-157220
X169620Y-157220
X121460Y-157220
X131620Y-157220
X363360Y-138220
X373520Y-138220
X168960Y-138220
X179120Y-138220
X382360Y-214220
X392520Y-214220
X363360Y-157220
X373520Y-157220
X278160Y-176220
X288320Y-176220
X271160Y-214220
X281320Y-214220
X57360Y-214220
X67520Y-214220
X216460Y-111920
X226620Y-111920
X66860Y-195220
X77020Y-195220
X223760Y-214220
X233920Y-214220
X126060Y-214220
X136220Y-214220
X102460Y-157220
X112620Y-157220
X81060Y-214220
X91220Y-214220
X311460Y-138220
X321620Y-138220
X301960Y-138220
X312120Y-138220
X363360Y-214220
X373520Y-214220
X126160Y-176220
X136320Y-176220
X316160Y-157220
X326320Y-157220
X206960Y-138220
X217120Y-138220
X382360Y-195220
X392520Y-195220
X149960Y-138220
X160120Y-138220
X104760Y-214220
X114920Y-214220
X344360Y-157220
X354520Y-157220
X287760Y-195220
X297920Y-195220
X192760Y-195220
X202920Y-195220
X313860Y-195220
X324020Y-195220
X59760Y-157220
X69920Y-157220
X382360Y-138220
X392520Y-138220
X297160Y-176220
X307320Y-176220
X320960Y-111920
X331120Y-111920
X344360Y-214220
X354520Y-214220
X282960Y-111920
X293120Y-111920
X268760Y-195220
X278920Y-195220
X344360Y-111920
X354520Y-111920
X107160Y-176220
X117320Y-176220
X309060Y-176220
X319220Y-176220
X88160Y-176220
X98320Y-176220
X116760Y-195220
X126920Y-195220
X187960Y-138220
X198120Y-138220
X197460Y-157220
X207620Y-157220
X176060Y-214220
X186220Y-214220
X54960Y-138220
X65120Y-138220
X130960Y-111920
X141120Y-111920
X244960Y-138220
X255120Y-138220
X221160Y-176220
X231320Y-176220
X240160Y-176220
X250320Y-176220
X382360Y-157220
X392520Y-157220
X200060Y-214220
X210220Y-214220
X154760Y-195220
X164920Y-195220
X178460Y-111920
X188620Y-111920
X318560Y-214220
X328720Y-214220
X282960Y-138220
X293120Y-138220
X304360Y-195220
X314520Y-195220
X263960Y-138220
X274120Y-138220
X323720Y-161580
X323720Y-171740
X363360Y-195220
X373520Y-195220
X225960Y-138220
X236120Y-138220
X97760Y-195220
X107920Y-195220
X202160Y-176220
X212320Y-176220
X235460Y-157220
X245620Y-157220
X149960Y-111920
X160120Y-111920
X135760Y-195220
X145920Y-195220
X292460Y-157220
X302620Y-157220
X145160Y-176220
X155320Y-176220
X92960Y-111920
X103120Y-111920
X263960Y-111920
X274120Y-111920
X92960Y-138220
X103120Y-138220
X54960Y-111920
X65120Y-111920
X230760Y-195220
X240920Y-195220
X259160Y-176220
X269320Y-176220
X78760Y-195220
X88920Y-195220
X73960Y-111920
X84120Y-111920
X140460Y-157220
X150620Y-157220
X197460Y-111920
X207620Y-111920
X111960Y-111920
X122120Y-111920
X62060Y-176220
X72220Y-176220
X178460Y-157220
X188620Y-157220
X54960Y-195220
X65120Y-195220
X161860Y-214220
X172020Y-214220
X273460Y-157220
X283620Y-157220
X216460Y-157220
X226620Y-157220
X235460Y-111920
X245620Y-111920
X301960Y-111920
X312120Y-111920
X382360Y-111920
X392520Y-111920
X130960Y-138220
X141120Y-138220
X164160Y-176220
X174320Y-176220
X320960Y-138220
X331120Y-138220
X111960Y-138220
X122120Y-138220
X344360Y-195220
X354520Y-195220
X254460Y-157220
X264620Y-157220
X344360Y-138220
X354520Y-138220
X249760Y-195220
X259920Y-195220
X363360Y-111920
X373520Y-111920
X294860Y-214220
X305020Y-214220
X247460Y-214220
X257620Y-214220
X211760Y-195220
X221920Y-195220
X73960Y-138220
X84120Y-138220
X173760Y-195220
X183920Y-195220
T5
X60040Y-186980
X83840Y-186980
X304640Y-129980
X328440Y-129980
X302240Y-167980
X326040Y-167980
X131140Y-221220
X231140Y-221220
X297540Y-186980
X321340Y-186980
X316720Y-154760
X316720Y-178560
X155040Y-221220
X178840Y-221220
T6
X121840Y-195220
X193040Y-138220
X202540Y-157220
X131140Y-205980
X181140Y-214220
X231140Y-205980
X60040Y-138220
X136040Y-111920
X250040Y-138220
X226240Y-176220
X245240Y-176220
X387440Y-157220
X205140Y-214220
X159840Y-195220
X183540Y-111920
X323640Y-214220
X288040Y-138220
X297540Y-202220
X309440Y-195220
X321340Y-202220
X269040Y-138220
X323720Y-166660
X331960Y-154760
X331960Y-178560
X368440Y-195220
X231040Y-138220
X102840Y-195220
X207240Y-176220
X240540Y-157220
X155040Y-111920
X140840Y-195220
X297540Y-157220
X150240Y-176220
X98040Y-111920
X269040Y-111920
X98040Y-138220
X60040Y-111920
X235840Y-195220
X264240Y-176220
X83840Y-195220
X79040Y-111920
X145540Y-157220
X202540Y-111920
X117040Y-111920
X67140Y-176220
X183540Y-157220
X60040Y-195220
X155040Y-205980
X166940Y-214220
X178840Y-205980
X278540Y-157220
X221540Y-157220
X240540Y-111920
X307040Y-111920
X387440Y-111920
X136040Y-138220
X169240Y-176220
X326040Y-138220
X117040Y-138220
X349440Y-195220
X259540Y-157220
X349440Y-138220
X254840Y-195220
X368440Y-111920
X299940Y-214220
X252540Y-214220
X216840Y-195220
X79040Y-138220
X178840Y-195220
X88540Y-157220
X188240Y-176220
X164540Y-157220
X126540Y-157220
X368440Y-138220
X174040Y-138220
X387440Y-214220
X368440Y-157220
X283240Y-176220
X276240Y-214220
X62440Y-214220
X221540Y-111920
X60040Y-202220
X71940Y-195220
X83840Y-202220
X228840Y-214220
X131140Y-214220
X107540Y-157220
X86140Y-214220
X304640Y-145220
X316540Y-138220
X328440Y-145220
X307040Y-138220
X368440Y-214220
X131240Y-176220
X321240Y-157220
X212040Y-138220
X387440Y-195220
X155040Y-138220
X109840Y-214220
X349440Y-157220
X292840Y-195220
X197840Y-195220
X318940Y-195220
X64840Y-157220
X387440Y-138220
X302240Y-176220
X326040Y-111920
X349440Y-214220
X288040Y-111920
X273840Y-195220
X349440Y-111920
X112240Y-176220
X302240Y-183220
X314140Y-176220
X326040Y-183220
X93240Y-176220
T0
M30
